<?xml version="1.0" encoding="utf-8" standalone="no"?>
<!DOCTYPE svg PUBLIC "-//W3C//DTD SVG 1.1//EN"
  "http://www.w3.org/Graphics/SVG/1.1/DTD/svg11.dtd">
<svg xmlns:xlink="http://www.w3.org/1999/xlink" width="792pt" height="324pt" viewBox="0 0 792 324" xmlns="http://www.w3.org/2000/svg" version="1.1">
 <metadata>
  <rdf:RDF xmlns:dc="http://purl.org/dc/elements/1.1/" xmlns:cc="http://creativecommons.org/ns#" xmlns:rdf="http://www.w3.org/1999/02/22-rdf-syntax-ns#">
   <cc:Work>
    <dc:type rdf:resource="http://purl.org/dc/dcmitype/StillImage"/>
    <dc:format>image/svg+xml</dc:format>
    <dc:creator>
     <cc:Agent>
      <dc:title>Matplotlib v3.10.9, https://matplotlib.org/</dc:title>
     </cc:Agent>
    </dc:creator>
   </cc:Work>
  </rdf:RDF>
 </metadata>
 <defs>
  <style type="text/css">*{stroke-linejoin: round; stroke-linecap: butt}</style>
 </defs>
 <g id="figure_1">
  <g id="patch_1">
   <path d="M 0 324 
L 792 324 
L 792 0 
L 0 0 
z
" style="fill: #ffffff"/>
  </g>
  <g id="axes_1">
   <g id="patch_2">
    <path d="M 79.2 265.68 
L 776.16 265.68 
L 776.16 51.84 
L 79.2 51.84 
z
" style="fill: #ffffff"/>
   </g>
   <g id="matplotlib.axis_1">
    <g id="xtick_1">
     <g id="line2d_1">
      <defs>
       <path id="me146de595a" d="M 0 0 
L 0 3.5 
" style="stroke: #000000; stroke-width: 0.8"/>
      </defs>
      <g>
       <use xlink:href="#me146de595a" x="94.028936" y="265.68" style="stroke: #000000; stroke-width: 0.8"/>
      </g>
     </g>
     <g id="text_1">
      <!-- 1 -->
      <g transform="translate(90.698936 282.23125) scale(0.12 -0.12)">
       <defs>
        <path id="NotoSansCJKjp-Regular-31" d="M 563 0 
L 3136 0 
L 3136 486 
L 2195 486 
L 2195 4691 
L 1747 4691 
C 1491 4544 1190 4435 774 4358 
L 774 3987 
L 1613 3987 
L 1613 486 
L 563 486 
L 563 0 
z
" transform="scale(0.015625)"/>
       </defs>
       <use xlink:href="#NotoSansCJKjp-Regular-31"/>
      </g>
     </g>
    </g>
    <g id="xtick_2">
     <g id="line2d_2">
      <g>
       <use xlink:href="#me146de595a" x="168.173617" y="265.68" style="stroke: #000000; stroke-width: 0.8"/>
      </g>
     </g>
     <g id="text_2">
      <!-- 2 -->
      <g transform="translate(164.843617 282.23125) scale(0.12 -0.12)">
       <defs>
        <path id="NotoSansCJKjp-Regular-32" d="M 282 0 
L 3232 0 
L 3232 506 
L 1933 506 
C 1696 506 1408 480 1165 461 
C 2266 1504 3008 2458 3008 3398 
C 3008 4230 2477 4774 1638 4774 
C 1043 4774 634 4506 256 4090 
L 595 3757 
C 858 4070 1184 4301 1568 4301 
C 2150 4301 2432 3910 2432 3373 
C 2432 2566 1754 1632 282 346 
L 282 0 
z
" transform="scale(0.015625)"/>
       </defs>
       <use xlink:href="#NotoSansCJKjp-Regular-32"/>
      </g>
     </g>
    </g>
    <g id="xtick_3">
     <g id="line2d_3">
      <g>
       <use xlink:href="#me146de595a" x="242.318298" y="265.68" style="stroke: #000000; stroke-width: 0.8"/>
      </g>
     </g>
     <g id="text_3">
      <!-- 3 -->
      <g transform="translate(238.988298 282.23125) scale(0.12 -0.12)">
       <defs>
        <path id="NotoSansCJKjp-Regular-33" d="M 1683 -83 
C 2522 -83 3194 416 3194 1254 
C 3194 1901 2752 2310 2202 2445 
L 2202 2477 
C 2701 2650 3034 3034 3034 3603 
C 3034 4346 2458 4774 1664 4774 
C 1126 4774 710 4538 358 4218 
L 672 3846 
C 941 4115 1267 4301 1645 4301 
C 2138 4301 2438 4006 2438 3558 
C 2438 3053 2112 2662 1139 2662 
L 1139 2214 
C 2227 2214 2598 1843 2598 1274 
C 2598 736 2208 403 1645 403 
C 1114 403 762 659 486 941 
L 186 563 
C 493 224 954 -83 1683 -83 
z
" transform="scale(0.015625)"/>
       </defs>
       <use xlink:href="#NotoSansCJKjp-Regular-33"/>
      </g>
     </g>
    </g>
    <g id="xtick_4">
     <g id="line2d_4">
      <g>
       <use xlink:href="#me146de595a" x="316.462979" y="265.68" style="stroke: #000000; stroke-width: 0.8"/>
      </g>
     </g>
     <g id="text_4">
      <!-- 4 -->
      <g transform="translate(313.132979 282.23125) scale(0.12 -0.12)">
       <defs>
        <path id="NotoSansCJKjp-Regular-34" d="M 2176 0 
L 2726 0 
L 2726 1293 
L 3354 1293 
L 3354 1760 
L 2726 1760 
L 2726 4691 
L 2080 4691 
L 128 1677 
L 128 1293 
L 2176 1293 
L 2176 0 
z
M 2176 1760 
L 736 1760 
L 1805 3360 
C 1939 3590 2067 3827 2182 4051 
L 2208 4051 
C 2195 3814 2176 3430 2176 3200 
L 2176 1760 
z
" transform="scale(0.015625)"/>
       </defs>
       <use xlink:href="#NotoSansCJKjp-Regular-34"/>
      </g>
     </g>
    </g>
    <g id="xtick_5">
     <g id="line2d_5">
      <g>
       <use xlink:href="#me146de595a" x="390.60766" y="265.68" style="stroke: #000000; stroke-width: 0.8"/>
      </g>
     </g>
     <g id="text_5">
      <!-- 5 -->
      <g transform="translate(387.27766 282.23125) scale(0.12 -0.12)">
       <defs>
        <path id="NotoSansCJKjp-Regular-35" d="M 1677 -83 
C 2464 -83 3213 499 3213 1523 
C 3213 2560 2573 3021 1798 3021 
C 1517 3021 1306 2950 1094 2835 
L 1216 4192 
L 2982 4192 
L 2982 4691 
L 704 4691 
L 550 2502 
L 864 2304 
C 1133 2483 1331 2579 1645 2579 
C 2234 2579 2618 2182 2618 1510 
C 2618 826 2176 403 1619 403 
C 1075 403 730 653 467 922 
L 173 538 
C 493 224 941 -83 1677 -83 
z
" transform="scale(0.015625)"/>
       </defs>
       <use xlink:href="#NotoSansCJKjp-Regular-35"/>
      </g>
     </g>
    </g>
    <g id="xtick_6">
     <g id="line2d_6">
      <g>
       <use xlink:href="#me146de595a" x="464.75234" y="265.68" style="stroke: #000000; stroke-width: 0.8"/>
      </g>
     </g>
     <g id="text_6">
      <!-- 6 -->
      <g transform="translate(461.42234 282.23125) scale(0.12 -0.12)">
       <defs>
        <path id="NotoSansCJKjp-Regular-36" d="M 1926 -83 
C 2656 -83 3277 531 3277 1440 
C 3277 2426 2765 2912 1971 2912 
C 1606 2912 1197 2701 909 2349 
C 934 3802 1466 4294 2118 4294 
C 2400 4294 2682 4154 2861 3936 
L 3194 4294 
C 2931 4576 2579 4774 2093 4774 
C 1184 4774 358 4077 358 2240 
C 358 691 1030 -83 1926 -83 
z
M 922 1882 
C 1229 2317 1587 2477 1875 2477 
C 2445 2477 2720 2074 2720 1440 
C 2720 800 2374 378 1926 378 
C 1338 378 986 909 922 1882 
z
" transform="scale(0.015625)"/>
       </defs>
       <use xlink:href="#NotoSansCJKjp-Regular-36"/>
      </g>
     </g>
    </g>
    <g id="xtick_7">
     <g id="line2d_7">
      <g>
       <use xlink:href="#me146de595a" x="538.897021" y="265.68" style="stroke: #000000; stroke-width: 0.8"/>
      </g>
     </g>
     <g id="text_7">
      <!-- 7 -->
      <g transform="translate(535.567021 282.23125) scale(0.12 -0.12)">
       <defs>
        <path id="NotoSansCJKjp-Regular-37" d="M 1267 0 
L 1875 0 
C 1952 1837 2150 2931 3251 4339 
L 3251 4691 
L 314 4691 
L 314 4192 
L 2592 4192 
C 1670 2912 1350 1779 1267 0 
z
" transform="scale(0.015625)"/>
       </defs>
       <use xlink:href="#NotoSansCJKjp-Regular-37"/>
      </g>
     </g>
    </g>
    <g id="xtick_8">
     <g id="line2d_8">
      <g>
       <use xlink:href="#me146de595a" x="613.041702" y="265.68" style="stroke: #000000; stroke-width: 0.8"/>
      </g>
     </g>
     <g id="text_8">
      <!-- 8 -->
      <g transform="translate(609.711702 282.23125) scale(0.12 -0.12)">
       <defs>
        <path id="NotoSansCJKjp-Regular-38" d="M 1792 -83 
C 2669 -83 3258 448 3258 1126 
C 3258 1773 2880 2125 2470 2362 
L 2470 2394 
C 2746 2611 3091 3034 3091 3526 
C 3091 4250 2605 4762 1805 4762 
C 1075 4762 518 4282 518 3571 
C 518 3078 813 2726 1152 2490 
L 1152 2464 
C 723 2234 294 1792 294 1165 
C 294 442 922 -83 1792 -83 
z
M 2112 2547 
C 1555 2765 1050 3014 1050 3571 
C 1050 4026 1363 4326 1798 4326 
C 2298 4326 2592 3962 2592 3494 
C 2592 3149 2426 2829 2112 2547 
z
M 1798 352 
C 1235 352 813 717 813 1216 
C 813 1664 1082 2035 1459 2278 
C 2125 2010 2701 1779 2701 1146 
C 2701 678 2342 352 1798 352 
z
" transform="scale(0.015625)"/>
       </defs>
       <use xlink:href="#NotoSansCJKjp-Regular-38"/>
      </g>
     </g>
    </g>
    <g id="xtick_9">
     <g id="line2d_9">
      <g>
       <use xlink:href="#me146de595a" x="687.186383" y="265.68" style="stroke: #000000; stroke-width: 0.8"/>
      </g>
     </g>
     <g id="text_9">
      <!-- 9 -->
      <g transform="translate(683.856383 282.23125) scale(0.12 -0.12)">
       <defs>
        <path id="NotoSansCJKjp-Regular-39" d="M 1504 -83 
C 2381 -83 3206 646 3206 2547 
C 3206 4038 2528 4774 1626 4774 
C 896 4774 282 4166 282 3251 
C 282 2285 794 1779 1574 1779 
C 1965 1779 2368 2003 2656 2349 
C 2611 896 2086 403 1485 403 
C 1178 403 896 538 691 762 
L 371 397 
C 634 122 992 -83 1504 -83 
z
M 2650 2842 
C 2336 2394 1984 2214 1670 2214 
C 1114 2214 832 2624 832 3251 
C 832 3898 1178 4320 1632 4320 
C 2227 4320 2586 3808 2650 2842 
z
" transform="scale(0.015625)"/>
       </defs>
       <use xlink:href="#NotoSansCJKjp-Regular-39"/>
      </g>
     </g>
    </g>
    <g id="xtick_10">
     <g id="line2d_10">
      <g>
       <use xlink:href="#me146de595a" x="761.331064" y="265.68" style="stroke: #000000; stroke-width: 0.8"/>
      </g>
     </g>
     <g id="text_10">
      <!-- 10 -->
      <g transform="translate(754.671064 282.23125) scale(0.12 -0.12)">
       <defs>
        <path id="NotoSansCJKjp-Regular-30" d="M 1779 -83 
C 2669 -83 3238 723 3238 2362 
C 3238 3987 2669 4774 1779 4774 
C 883 4774 320 3987 320 2362 
C 320 723 883 -83 1779 -83 
z
M 1779 390 
C 1248 390 883 986 883 2362 
C 883 3731 1248 4314 1779 4314 
C 2310 4314 2675 3731 2675 2362 
C 2675 986 2310 390 1779 390 
z
" transform="scale(0.015625)"/>
       </defs>
       <use xlink:href="#NotoSansCJKjp-Regular-31"/>
       <use xlink:href="#NotoSansCJKjp-Regular-30" transform="translate(55.499985 0)"/>
      </g>
     </g>
    </g>
    <g id="text_11">
     <!-- 采集分钟 -->
     <g transform="translate(403.68 298.53125) scale(0.12 -0.12)">
      <defs>
       <path id="NotoSansCJKjp-Regular-91c7" d="M 5126 4422 
C 4902 3930 4499 3251 4186 2829 
L 4576 2650 
C 4902 3053 5299 3686 5606 4224 
L 5126 4422 
z
M 915 3981 
C 1184 3616 1446 3123 1530 2790 
L 1965 2976 
C 1875 3309 1606 3789 1325 4154 
L 915 3981 
z
M 2637 4230 
C 2835 3853 2995 3354 3040 3040 
L 3507 3194 
C 3462 3507 3277 3994 3085 4365 
L 2637 4230 
z
M 5299 5306 
C 4192 5088 2234 4934 582 4870 
C 627 4755 691 4557 704 4429 
C 2374 4480 4365 4634 5683 4870 
L 5299 5306 
z
M 384 2394 
L 384 1920 
L 2573 1920 
C 1984 1190 1062 499 218 154 
C 339 45 493 -141 576 -269 
C 1408 134 2310 851 2931 1651 
L 2931 -499 
L 3437 -499 
L 3437 1677 
C 4070 877 4986 134 5824 -256 
C 5914 -128 6067 64 6182 166 
C 5338 512 4403 1197 3802 1920 
L 6022 1920 
L 6022 2394 
L 3437 2394 
L 3437 2976 
L 2931 2976 
L 2931 2394 
L 384 2394 
z
" transform="scale(0.015625)"/>
       <path id="NotoSansCJKjp-Regular-96c6" d="M 1696 5389 
C 1414 4800 890 4058 173 3494 
C 282 3424 442 3283 518 3174 
C 736 3354 934 3546 1114 3744 
L 1114 1856 
L 2944 1856 
L 2944 1459 
L 346 1459 
L 346 1056 
L 2541 1056 
C 1926 589 992 166 186 -38 
C 294 -141 429 -320 506 -442 
C 1325 -186 2285 301 2944 864 
L 2944 -506 
L 3424 -506 
L 3424 883 
C 4077 333 5050 -147 5888 -390 
C 5958 -269 6093 -96 6195 6 
C 5389 198 4461 602 3846 1056 
L 6061 1056 
L 6061 1459 
L 3424 1459 
L 3424 1856 
L 5888 1856 
L 5888 2240 
L 3533 2240 
L 3533 2682 
L 5395 2682 
L 5395 3027 
L 3533 3027 
L 3533 3456 
L 5376 3456 
L 5376 3802 
L 3533 3802 
L 3533 4224 
L 5638 4224 
L 5638 4621 
L 3526 4621 
C 3654 4826 3789 5069 3904 5306 
L 3366 5376 
C 3296 5158 3162 4864 3034 4621 
L 1798 4621 
C 1946 4851 2080 5075 2195 5293 
L 1696 5389 
z
M 3072 3456 
L 3072 3027 
L 1574 3027 
L 1574 3456 
L 3072 3456 
z
M 3072 3802 
L 1574 3802 
L 1574 4224 
L 3072 4224 
L 3072 3802 
z
M 3072 2682 
L 3072 2240 
L 1574 2240 
L 1574 2682 
L 3072 2682 
z
" transform="scale(0.015625)"/>
       <path id="NotoSansCJKjp-Regular-5206" d="M 2074 5248 
C 1677 4256 966 3373 147 2829 
C 262 2739 474 2554 563 2451 
C 1363 3059 2118 4019 2586 5101 
L 2074 5248 
z
M 4307 5261 
L 3846 5075 
C 4326 4122 5139 3085 5850 2509 
C 5939 2643 6118 2829 6253 2931 
C 5549 3424 4723 4397 4307 5261 
z
M 1197 2957 
L 1197 2490 
L 2509 2490 
C 2368 1402 2010 378 486 -122 
C 595 -224 736 -416 800 -544 
C 2445 51 2854 1216 3027 2490 
L 4685 2490 
C 4608 864 4512 224 4346 58 
C 4282 -6 4205 -26 4077 -26 
C 3923 -26 3533 -19 3110 19 
C 3200 -115 3258 -320 3270 -461 
C 3674 -486 4070 -493 4288 -474 
C 4506 -454 4653 -410 4781 -243 
C 5005 0 5094 736 5190 2726 
C 5197 2790 5197 2957 5197 2957 
L 1197 2957 
z
" transform="scale(0.015625)"/>
       <path id="NotoSansCJKjp-Regular-949f" d="M 4179 3558 
L 4179 2035 
L 3302 2035 
L 3302 3558 
L 4179 3558 
z
M 4653 3558 
L 5536 3558 
L 5536 2035 
L 4653 2035 
L 4653 3558 
z
M 4179 5363 
L 4179 4026 
L 2867 4026 
L 2867 1178 
L 3302 1178 
L 3302 1568 
L 4179 1568 
L 4179 -518 
L 4653 -518 
L 4653 1568 
L 5536 1568 
L 5536 1216 
L 5997 1216 
L 5997 4026 
L 4653 4026 
L 4653 5363 
L 4179 5363 
z
M 1152 5357 
C 960 4762 614 4186 230 3808 
C 307 3706 435 3462 480 3360 
C 704 3590 915 3878 1107 4198 
L 2656 4198 
L 2656 4640 
L 1344 4640 
C 1434 4832 1517 5037 1587 5235 
L 1152 5357 
z
M 384 2202 
L 384 1760 
L 1312 1760 
L 1312 467 
C 1312 166 1094 -26 973 -109 
C 1056 -192 1178 -365 1229 -467 
C 1331 -365 1517 -256 2733 378 
C 2694 480 2656 666 2643 794 
L 1773 358 
L 1773 1760 
L 2675 1760 
L 2675 2202 
L 1773 2202 
L 1773 3066 
L 2522 3066 
L 2522 3501 
L 717 3501 
L 717 3066 
L 1312 3066 
L 1312 2202 
L 384 2202 
z
" transform="scale(0.015625)"/>
      </defs>
      <use xlink:href="#NotoSansCJKjp-Regular-91c7"/>
      <use xlink:href="#NotoSansCJKjp-Regular-96c6" transform="translate(99.999985 0)"/>
      <use xlink:href="#NotoSansCJKjp-Regular-5206" transform="translate(199.999969 0)"/>
      <use xlink:href="#NotoSansCJKjp-Regular-949f" transform="translate(299.999954 0)"/>
     </g>
    </g>
   </g>
   <g id="matplotlib.axis_2">
    <g id="ytick_1">
     <g id="line2d_11">
      <path d="M 79.2 265.68 
L 776.16 265.68 
" clip-path="url(#p03351dca3c)" style="fill: none; stroke: #b0b0b0; stroke-opacity: 0.18; stroke-width: 0.8; stroke-linecap: square"/>
     </g>
     <g id="line2d_12">
      <defs>
       <path id="ma44f66274d" d="M 0 0 
L -3.5 0 
" style="stroke: #000000; stroke-width: 0.8"/>
      </defs>
      <g>
       <use xlink:href="#ma44f66274d" x="79.2" y="265.68" style="stroke: #000000; stroke-width: 0.8"/>
      </g>
     </g>
     <g id="text_12">
      <!-- 0.0 -->
      <g transform="translate(55.544375 270.455625) scale(0.12 -0.12)">
       <defs>
        <path id="NotoSansCJKjp-Regular-2e" d="M 890 -83 
C 1120 -83 1312 96 1312 358 
C 1312 627 1120 806 890 806 
C 653 806 467 627 467 358 
C 467 96 653 -83 890 -83 
z
" transform="scale(0.015625)"/>
       </defs>
       <use xlink:href="#NotoSansCJKjp-Regular-30"/>
       <use xlink:href="#NotoSansCJKjp-Regular-2e" transform="translate(55.499985 0)"/>
       <use xlink:href="#NotoSansCJKjp-Regular-30" transform="translate(83.299973 0)"/>
      </g>
     </g>
    </g>
    <g id="ytick_2">
     <g id="line2d_13">
      <path d="M 79.2 215.364706 
L 776.16 215.364706 
" clip-path="url(#p03351dca3c)" style="fill: none; stroke: #b0b0b0; stroke-opacity: 0.18; stroke-width: 0.8; stroke-linecap: square"/>
     </g>
     <g id="line2d_14">
      <g>
       <use xlink:href="#ma44f66274d" x="79.2" y="215.364706" style="stroke: #000000; stroke-width: 0.8"/>
      </g>
     </g>
     <g id="text_13">
      <!-- 0.2 -->
      <g transform="translate(55.544375 220.140331) scale(0.12 -0.12)">
       <use xlink:href="#NotoSansCJKjp-Regular-30"/>
       <use xlink:href="#NotoSansCJKjp-Regular-2e" transform="translate(55.499985 0)"/>
       <use xlink:href="#NotoSansCJKjp-Regular-32" transform="translate(83.299973 0)"/>
      </g>
     </g>
    </g>
    <g id="ytick_3">
     <g id="line2d_15">
      <path d="M 79.2 165.049412 
L 776.16 165.049412 
" clip-path="url(#p03351dca3c)" style="fill: none; stroke: #b0b0b0; stroke-opacity: 0.18; stroke-width: 0.8; stroke-linecap: square"/>
     </g>
     <g id="line2d_16">
      <g>
       <use xlink:href="#ma44f66274d" x="79.2" y="165.049412" style="stroke: #000000; stroke-width: 0.8"/>
      </g>
     </g>
     <g id="text_14">
      <!-- 0.4 -->
      <g transform="translate(55.544375 169.825037) scale(0.12 -0.12)">
       <use xlink:href="#NotoSansCJKjp-Regular-30"/>
       <use xlink:href="#NotoSansCJKjp-Regular-2e" transform="translate(55.499985 0)"/>
       <use xlink:href="#NotoSansCJKjp-Regular-34" transform="translate(83.299973 0)"/>
      </g>
     </g>
    </g>
    <g id="ytick_4">
     <g id="line2d_17">
      <path d="M 79.2 114.734118 
L 776.16 114.734118 
" clip-path="url(#p03351dca3c)" style="fill: none; stroke: #b0b0b0; stroke-opacity: 0.18; stroke-width: 0.8; stroke-linecap: square"/>
     </g>
     <g id="line2d_18">
      <g>
       <use xlink:href="#ma44f66274d" x="79.2" y="114.734118" style="stroke: #000000; stroke-width: 0.8"/>
      </g>
     </g>
     <g id="text_15">
      <!-- 0.6 -->
      <g transform="translate(55.544375 119.509743) scale(0.12 -0.12)">
       <use xlink:href="#NotoSansCJKjp-Regular-30"/>
       <use xlink:href="#NotoSansCJKjp-Regular-2e" transform="translate(55.499985 0)"/>
       <use xlink:href="#NotoSansCJKjp-Regular-36" transform="translate(83.299973 0)"/>
      </g>
     </g>
    </g>
    <g id="ytick_5">
     <g id="line2d_19">
      <path d="M 79.2 64.418824 
L 776.16 64.418824 
" clip-path="url(#p03351dca3c)" style="fill: none; stroke: #b0b0b0; stroke-opacity: 0.18; stroke-width: 0.8; stroke-linecap: square"/>
     </g>
     <g id="line2d_20">
      <g>
       <use xlink:href="#ma44f66274d" x="79.2" y="64.418824" style="stroke: #000000; stroke-width: 0.8"/>
      </g>
     </g>
     <g id="text_16">
      <!-- 0.8 -->
      <g transform="translate(55.544375 69.194449) scale(0.12 -0.12)">
       <use xlink:href="#NotoSansCJKjp-Regular-30"/>
       <use xlink:href="#NotoSansCJKjp-Regular-2e" transform="translate(55.499985 0)"/>
       <use xlink:href="#NotoSansCJKjp-Regular-38" transform="translate(83.299973 0)"/>
      </g>
     </g>
    </g>
    <g id="text_17">
     <!-- 每分钟积压 p95（秒） -->
     <g transform="translate(48.795625 218.484375) rotate(-90) scale(0.12 -0.12)">
      <defs>
       <path id="NotoSansCJKjp-Regular-6bcf" d="M 2502 2931 
C 2906 2746 3386 2445 3635 2208 
L 1722 2208 
L 1856 3219 
L 4800 3219 
L 4762 2208 
L 3674 2208 
L 3942 2490 
C 3693 2726 3187 3021 2778 3200 
L 2502 2931 
z
M 275 2221 
L 275 1786 
L 1190 1786 
C 1094 1158 992 550 902 109 
L 1389 77 
L 1434 320 
L 4608 320 
C 4570 128 4525 13 4480 -45 
C 4422 -122 4365 -141 4250 -141 
C 4122 -141 3827 -134 3507 -109 
C 3571 -218 3616 -384 3622 -493 
C 3936 -512 4262 -518 4448 -506 
C 4646 -486 4781 -435 4902 -269 
C 4979 -173 5037 6 5088 320 
L 5914 320 
L 5914 749 
L 5139 749 
C 5171 1024 5190 1363 5216 1786 
L 6138 1786 
L 6138 2221 
L 5235 2221 
L 5280 3411 
C 5280 3475 5286 3648 5286 3648 
L 1427 3648 
C 1382 3219 1318 2720 1254 2221 
L 275 2221 
z
M 4666 749 
L 3603 749 
L 3834 998 
C 3571 1254 3059 1581 2618 1792 
L 4742 1792 
C 4717 1357 4698 1018 4666 749 
z
M 2336 1523 
C 2746 1318 3226 1005 3494 749 
L 1504 749 
L 1664 1792 
L 2598 1792 
L 2336 1523 
z
M 1734 5414 
C 1402 4602 845 3776 262 3264 
C 384 3194 608 3046 710 2963 
C 1030 3290 1363 3718 1658 4192 
L 5901 4192 
L 5901 4634 
L 1920 4634 
C 2029 4845 2138 5056 2234 5274 
L 1734 5414 
z
" transform="scale(0.015625)"/>
       <path id="NotoSansCJKjp-Regular-79ef" d="M 4864 1312 
C 5197 755 5549 6 5690 -454 
L 6144 -262 
C 5997 192 5632 922 5286 1472 
L 4864 1312 
z
M 3552 1459 
C 3373 806 3046 179 2630 -230 
C 2752 -294 2950 -435 3040 -506 
C 3456 -64 3821 627 4032 1350 
L 3552 1459 
z
M 3558 4461 
L 5382 4461 
L 5382 2547 
L 3558 2547 
L 3558 4461 
z
M 3098 4922 
L 3098 2086 
L 5862 2086 
L 5862 4922 
L 3098 4922 
z
M 2541 5318 
C 1990 5101 1037 4915 224 4800 
C 282 4691 346 4525 365 4422 
C 704 4461 1069 4518 1427 4582 
L 1427 3539 
L 294 3539 
L 294 3091 
L 1357 3091 
C 1088 2355 634 1523 205 1069 
C 288 947 416 749 467 614 
C 806 1011 1152 1658 1427 2310 
L 1427 -518 
L 1888 -518 
L 1888 2458 
C 2131 2112 2445 1638 2566 1408 
L 2854 1811 
C 2720 2003 2086 2758 1888 2970 
L 1888 3091 
L 2899 3091 
L 2899 3539 
L 1888 3539 
L 1888 4672 
C 2234 4749 2554 4838 2816 4934 
L 2541 5318 
z
" transform="scale(0.015625)"/>
       <path id="NotoSansCJKjp-Regular-538b" d="M 4378 1734 
C 4723 1434 5107 1005 5280 723 
L 5651 998 
C 5466 1274 5082 1670 4730 1965 
L 4378 1734 
z
M 736 5069 
L 736 3002 
C 736 2029 698 698 205 -250 
C 314 -294 518 -435 602 -512 
C 1120 480 1197 1978 1197 3002 
L 1197 4608 
L 6118 4608 
L 6118 5069 
L 736 5069 
z
M 3398 4256 
L 3398 2880 
L 1651 2880 
L 1651 2426 
L 3398 2426 
L 3398 218 
L 1229 218 
L 1229 -237 
L 6093 -237 
L 6093 218 
L 3885 218 
L 3885 2426 
L 5786 2426 
L 5786 2880 
L 3885 2880 
L 3885 4256 
L 3398 4256 
z
" transform="scale(0.015625)"/>
       <path id="NotoSansCJKjp-Regular-20" transform="scale(0.015625)"/>
       <path id="NotoSansCJKjp-Regular-70" d="M 589 -1466 
L 1178 -1466 
L 1178 -288 
L 1158 320 
C 1472 58 1805 -83 2118 -83 
C 2912 -83 3629 602 3629 1792 
C 3629 2867 3142 3565 2246 3565 
C 1843 3565 1453 3334 1139 3072 
L 1126 3072 
L 1069 3475 
L 589 3475 
L 589 -1466 
z
M 2022 410 
C 1792 410 1485 499 1178 768 
L 1178 2598 
C 1510 2906 1811 3072 2099 3072 
C 2765 3072 3021 2560 3021 1786 
C 3021 928 2598 410 2022 410 
z
" transform="scale(0.015625)"/>
       <path id="NotoSansCJKjp-Regular-ff08" d="M 4448 2432 
C 4448 1184 4954 166 5722 -614 
L 6106 -416 
C 5370 346 4915 1293 4915 2432 
C 4915 3571 5370 4518 6106 5280 
L 5722 5478 
C 4954 4698 4448 3680 4448 2432 
z
" transform="scale(0.015625)"/>
       <path id="NotoSansCJKjp-Regular-79d2" d="M 4160 5370 
L 4160 1997 
C 4160 1920 4128 1894 4045 1888 
C 3962 1888 3693 1888 3392 1894 
C 3462 1766 3533 1562 3558 1434 
C 3987 1427 4243 1446 4410 1523 
C 4582 1606 4640 1741 4640 1990 
L 4640 5370 
L 4160 5370 
z
M 3206 4307 
C 3072 3590 2842 2880 2502 2413 
C 2624 2362 2829 2246 2918 2182 
C 3238 2675 3507 3450 3661 4224 
L 3206 4307 
z
M 5037 4205 
C 5370 3629 5664 2848 5760 2342 
L 6202 2490 
C 6093 3002 5792 3763 5446 4346 
L 5037 4205 
z
M 5331 2227 
C 4947 947 4064 243 2496 -70 
C 2598 -186 2714 -365 2765 -506 
C 4429 -109 5370 685 5792 2106 
L 5331 2227 
z
M 2310 5286 
C 1837 5069 992 4883 275 4762 
C 333 4659 397 4499 416 4397 
C 717 4435 1037 4493 1357 4557 
L 1357 3571 
L 314 3571 
L 314 3123 
L 1293 3123 
C 1037 2387 595 1555 179 1101 
C 262 986 378 794 429 659 
C 755 1056 1094 1690 1357 2336 
L 1357 -499 
L 1830 -499 
L 1830 2259 
C 2048 1990 2304 1645 2413 1466 
L 2701 1843 
C 2573 1990 2016 2566 1830 2726 
L 1830 3123 
L 2630 3123 
L 2630 3571 
L 1830 3571 
L 1830 4666 
C 2131 4736 2413 4819 2643 4915 
L 2310 5286 
z
" transform="scale(0.015625)"/>
       <path id="NotoSansCJKjp-Regular-ff09" d="M 1952 2432 
C 1952 3680 1446 4698 678 5478 
L 294 5280 
C 1030 4518 1485 3571 1485 2432 
C 1485 1293 1030 346 294 -416 
L 678 -614 
C 1446 166 1952 1184 1952 2432 
z
" transform="scale(0.015625)"/>
      </defs>
      <use xlink:href="#NotoSansCJKjp-Regular-6bcf"/>
      <use xlink:href="#NotoSansCJKjp-Regular-5206" transform="translate(99.999985 0)"/>
      <use xlink:href="#NotoSansCJKjp-Regular-949f" transform="translate(199.999969 0)"/>
      <use xlink:href="#NotoSansCJKjp-Regular-79ef" transform="translate(299.999954 0)"/>
      <use xlink:href="#NotoSansCJKjp-Regular-538b" transform="translate(399.999939 0)"/>
      <use xlink:href="#NotoSansCJKjp-Regular-20" transform="translate(499.999924 0)"/>
      <use xlink:href="#NotoSansCJKjp-Regular-70" transform="translate(522.399918 0)"/>
      <use xlink:href="#NotoSansCJKjp-Regular-39" transform="translate(584.399902 0)"/>
      <use xlink:href="#NotoSansCJKjp-Regular-35" transform="translate(639.899887 0)"/>
      <use xlink:href="#NotoSansCJKjp-Regular-ff08" transform="translate(695.399872 0)"/>
      <use xlink:href="#NotoSansCJKjp-Regular-79d2" transform="translate(795.399857 0)"/>
      <use xlink:href="#NotoSansCJKjp-Regular-ff09" transform="translate(895.399841 0)"/>
     </g>
    </g>
   </g>
   <g id="line2d_21">
    <path d="M 94.028936 190.383162 
L 168.173617 188.848546 
L 242.318298 189.628433 
L 316.462979 190.760527 
L 390.60766 189.301384 
L 464.75234 185.980574 
L 538.897021 150.835341 
L 613.041702 135.765911 
L 687.186383 90.809195 
L 761.331064 126.985892 
" clip-path="url(#p03351dca3c)" style="fill: none; stroke: #167854; stroke-width: 2; stroke-linecap: square"/>
    <defs>
     <path id="mfffe53f2d9" d="M 0 2 
C 0.530406 2 1.03916 1.789267 1.414214 1.414214 
C 1.789267 1.03916 2 0.530406 2 0 
C 2 -0.530406 1.789267 -1.03916 1.414214 -1.414214 
C 1.03916 -1.789267 0.530406 -2 0 -2 
C -0.530406 -2 -1.03916 -1.789267 -1.414214 -1.414214 
C -1.789267 -1.03916 -2 -0.530406 -2 0 
C -2 0.530406 -1.789267 1.03916 -1.414214 1.414214 
C -1.03916 1.789267 -0.530406 2 0 2 
z
" style="stroke: #167854"/>
    </defs>
    <g clip-path="url(#p03351dca3c)">
     <use xlink:href="#mfffe53f2d9" x="94.028936" y="190.383162" style="fill: #167854; stroke: #167854"/>
     <use xlink:href="#mfffe53f2d9" x="168.173617" y="188.848546" style="fill: #167854; stroke: #167854"/>
     <use xlink:href="#mfffe53f2d9" x="242.318298" y="189.628433" style="fill: #167854; stroke: #167854"/>
     <use xlink:href="#mfffe53f2d9" x="316.462979" y="190.760527" style="fill: #167854; stroke: #167854"/>
     <use xlink:href="#mfffe53f2d9" x="390.60766" y="189.301384" style="fill: #167854; stroke: #167854"/>
     <use xlink:href="#mfffe53f2d9" x="464.75234" y="185.980574" style="fill: #167854; stroke: #167854"/>
     <use xlink:href="#mfffe53f2d9" x="538.897021" y="150.835341" style="fill: #167854; stroke: #167854"/>
     <use xlink:href="#mfffe53f2d9" x="613.041702" y="135.765911" style="fill: #167854; stroke: #167854"/>
     <use xlink:href="#mfffe53f2d9" x="687.186383" y="90.809195" style="fill: #167854; stroke: #167854"/>
     <use xlink:href="#mfffe53f2d9" x="761.331064" y="126.985892" style="fill: #167854; stroke: #167854"/>
    </g>
   </g>
   <g id="line2d_22">
    <path d="M 94.028936 190.886315 
L 168.173617 188.873704 
L 242.318298 188.370551 
L 316.462979 190.332847 
L 390.60766 188.596969 
L 464.75234 187.817082 
L 538.897021 128.193459 
L 613.041702 138.357148 
L 687.186383 92.922438 
L 761.331064 126.709158 
" clip-path="url(#p03351dca3c)" style="fill: none; stroke: #386dba; stroke-width: 2; stroke-linecap: square"/>
    <defs>
     <path id="mf03b125c4d" d="M 0 2 
C 0.530406 2 1.03916 1.789267 1.414214 1.414214 
C 1.789267 1.03916 2 0.530406 2 0 
C 2 -0.530406 1.789267 -1.03916 1.414214 -1.414214 
C 1.03916 -1.789267 0.530406 -2 0 -2 
C -0.530406 -2 -1.03916 -1.789267 -1.414214 -1.414214 
C -1.789267 -1.03916 -2 -0.530406 -2 0 
C -2 0.530406 -1.789267 1.03916 -1.414214 1.414214 
C -1.03916 1.789267 -0.530406 2 0 2 
z
" style="stroke: #386dba"/>
    </defs>
    <g clip-path="url(#p03351dca3c)">
     <use xlink:href="#mf03b125c4d" x="94.028936" y="190.886315" style="fill: #386dba; stroke: #386dba"/>
     <use xlink:href="#mf03b125c4d" x="168.173617" y="188.873704" style="fill: #386dba; stroke: #386dba"/>
     <use xlink:href="#mf03b125c4d" x="242.318298" y="188.370551" style="fill: #386dba; stroke: #386dba"/>
     <use xlink:href="#mf03b125c4d" x="316.462979" y="190.332847" style="fill: #386dba; stroke: #386dba"/>
     <use xlink:href="#mf03b125c4d" x="390.60766" y="188.596969" style="fill: #386dba; stroke: #386dba"/>
     <use xlink:href="#mf03b125c4d" x="464.75234" y="187.817082" style="fill: #386dba; stroke: #386dba"/>
     <use xlink:href="#mf03b125c4d" x="538.897021" y="128.193459" style="fill: #386dba; stroke: #386dba"/>
     <use xlink:href="#mf03b125c4d" x="613.041702" y="138.357148" style="fill: #386dba; stroke: #386dba"/>
     <use xlink:href="#mf03b125c4d" x="687.186383" y="92.922438" style="fill: #386dba; stroke: #386dba"/>
     <use xlink:href="#mf03b125c4d" x="761.331064" y="126.709158" style="fill: #386dba; stroke: #386dba"/>
    </g>
   </g>
   <g id="patch_3">
    <path d="M 79.2 265.68 
L 79.2 51.84 
" style="fill: none; stroke: #000000; stroke-width: 0.8; stroke-linejoin: miter; stroke-linecap: square"/>
   </g>
   <g id="patch_4">
    <path d="M 79.2 265.68 
L 776.16 265.68 
" style="fill: none; stroke: #000000; stroke-width: 0.8; stroke-linejoin: miter; stroke-linecap: square"/>
   </g>
   <g id="text_18">
    <!-- 双路 10 分钟：保持实时，后段延迟上升 -->
    <g transform="translate(79.2 31.84) scale(0.17 -0.17)">
     <defs>
      <path id="NotoSansCJKjp-Bold-53cc" d="M 5146 4237 
C 5018 3405 4794 2675 4480 2061 
C 4205 2701 4019 3443 3898 4237 
L 5146 4237 
z
M 3142 4966 
L 3142 4237 
L 3488 4237 
L 3174 4186 
C 3354 3072 3603 2093 3994 1286 
C 3597 768 3110 371 2541 115 
C 2714 -38 2938 -352 3046 -557 
C 3578 -269 4038 90 4429 538 
C 4749 90 5146 -288 5626 -576 
C 5747 -371 5990 -70 6170 83 
C 5658 352 5254 742 4928 1229 
C 5478 2138 5830 3328 5978 4858 
L 5472 4992 
L 5344 4966 
L 3142 4966 
z
M 314 3296 
C 698 2861 1114 2349 1485 1843 
C 1139 1069 685 448 134 51 
C 320 -90 563 -378 685 -570 
C 1216 -141 1651 416 1997 1094 
C 2182 806 2336 538 2445 301 
L 3091 845 
C 2925 1178 2669 1562 2368 1965 
C 2662 2784 2854 3744 2957 4851 
L 2464 4992 
L 2330 4966 
L 358 4966 
L 358 4237 
L 2131 4237 
C 2054 3693 1946 3174 1798 2694 
C 1491 3066 1171 3430 877 3750 
L 314 3296 
z
" transform="scale(0.015625)"/>
      <path id="NotoSansCJKjp-Bold-8def" d="M 1165 4544 
L 2010 4544 
L 2010 3725 
L 1165 3725 
L 1165 4544 
z
M 166 410 
L 301 -333 
C 1030 -160 1997 70 2906 288 
L 2829 966 
L 2074 800 
L 2074 1651 
L 2778 1651 
L 2778 1837 
C 2874 1715 2970 1574 3021 1472 
L 3168 1536 
L 3168 -557 
L 3872 -557 
L 3872 -339 
L 5082 -339 
L 5082 -538 
L 5818 -538 
L 5818 1568 
L 5830 1562 
C 5933 1754 6157 2061 6310 2208 
C 5792 2368 5350 2624 4986 2918 
C 5370 3398 5677 3974 5869 4646 
L 5382 4858 
L 5248 4832 
L 4352 4832 
C 4410 4973 4467 5114 4512 5261 
L 3782 5440 
C 3571 4736 3187 4051 2714 3610 
L 2714 5197 
L 499 5197 
L 499 3072 
L 1395 3072 
L 1395 653 
L 1075 582 
L 1075 2618 
L 454 2618 
L 454 461 
L 166 410 
z
M 3872 320 
L 3872 1171 
L 5082 1171 
L 5082 320 
L 3872 320 
z
M 4922 4179 
C 4794 3910 4640 3654 4461 3424 
C 4275 3642 4122 3866 3994 4090 
L 4045 4179 
L 4922 4179 
z
M 3706 1818 
C 3987 1984 4250 2182 4493 2400 
C 4730 2182 4998 1984 5293 1818 
L 3706 1818 
z
M 4006 2925 
C 3642 2586 3226 2310 2778 2118 
L 2778 2323 
L 2074 2323 
L 2074 3072 
L 2714 3072 
L 2714 3488 
C 2886 3360 3130 3155 3232 3040 
C 3360 3174 3488 3322 3610 3488 
C 3725 3302 3859 3110 4006 2925 
z
" transform="scale(0.015625)"/>
      <path id="NotoSansCJKjp-Bold-20" transform="scale(0.015625)"/>
      <path id="NotoSansCJKjp-Bold-31" d="M 525 0 
L 3373 0 
L 3373 768 
L 2483 768 
L 2483 4742 
L 1786 4742 
C 1485 4550 1165 4429 685 4346 
L 685 3757 
L 1549 3757 
L 1549 768 
L 525 768 
L 525 0 
z
" transform="scale(0.015625)"/>
      <path id="NotoSansCJKjp-Bold-30" d="M 1888 -90 
C 2854 -90 3494 755 3494 2394 
C 3494 4019 2854 4826 1888 4826 
C 922 4826 282 4026 282 2394 
C 282 755 922 -90 1888 -90 
z
M 1888 646 
C 1478 646 1171 1056 1171 2394 
C 1171 3712 1478 4102 1888 4102 
C 2298 4102 2598 3712 2598 2394 
C 2598 1056 2298 646 1888 646 
z
" transform="scale(0.015625)"/>
      <path id="NotoSansCJKjp-Bold-5206" d="M 4403 5370 
L 3648 5069 
C 4006 4384 4493 3674 4998 3085 
L 1517 3085 
C 2022 3661 2477 4371 2797 5114 
L 1965 5357 
C 1581 4378 870 3482 70 2950 
C 256 2810 589 2502 730 2330 
C 902 2464 1082 2624 1248 2790 
L 1248 2342 
L 2330 2342 
C 2202 1408 1869 563 416 90 
C 602 -83 826 -403 915 -614 
C 2592 6 3014 1107 3168 2342 
L 4435 2342 
C 4378 1005 4307 429 4179 288 
C 4109 211 4032 198 3917 198 
C 3763 198 3424 205 3072 230 
C 3206 13 3309 -314 3322 -544 
C 3699 -557 4077 -557 4294 -525 
C 4544 -493 4717 -429 4883 -218 
C 5101 51 5184 813 5248 2752 
L 5254 2797 
C 5389 2650 5530 2509 5664 2387 
C 5811 2605 6112 2918 6317 3078 
C 5613 3622 4813 4550 4403 5370 
z
" transform="scale(0.015625)"/>
      <path id="NotoSansCJKjp-Bold-949f" d="M 4064 3418 
L 4064 2221 
L 3514 2221 
L 3514 3418 
L 4064 3418 
z
M 4813 3418 
L 5376 3418 
L 5376 2221 
L 4813 2221 
L 4813 3418 
z
M 4064 5427 
L 4064 4160 
L 2816 4160 
L 2816 1088 
L 3514 1088 
L 3514 1485 
L 4064 1485 
L 4064 -582 
L 4813 -582 
L 4813 1485 
L 5376 1485 
L 5376 1139 
L 6106 1139 
L 6106 4160 
L 4813 4160 
L 4813 5427 
L 4064 5427 
z
M 346 2310 
L 346 1619 
L 1171 1619 
L 1171 678 
C 1171 339 941 90 794 -19 
C 915 -134 1114 -403 1178 -557 
C 1306 -435 1536 -307 2784 314 
C 2733 474 2688 774 2675 979 
L 1901 614 
L 1901 1619 
L 2662 1619 
L 2662 2310 
L 1901 2310 
L 1901 2938 
L 2560 2938 
L 2560 3622 
L 870 3622 
C 986 3770 1101 3936 1203 4102 
L 2675 4102 
L 2675 4800 
L 1568 4800 
C 1626 4941 1683 5075 1734 5216 
L 1056 5421 
C 864 4858 525 4314 141 3962 
C 256 3776 442 3373 499 3206 
C 576 3283 653 3360 730 3450 
L 730 2938 
L 1171 2938 
L 1171 2310 
L 346 2310 
z
" transform="scale(0.015625)"/>
      <path id="NotoSansCJKjp-Bold-ff1a" d="M 3200 3302 
C 3539 3302 3808 3558 3808 3898 
C 3808 4250 3539 4506 3200 4506 
C 2861 4506 2592 4250 2592 3898 
C 2592 3558 2861 3302 3200 3302 
z
M 3200 250 
C 3539 250 3808 506 3808 845 
C 3808 1197 3539 1453 3200 1453 
C 2861 1453 2592 1197 2592 845 
C 2592 506 2861 250 3200 250 
z
" transform="scale(0.015625)"/>
      <path id="NotoSansCJKjp-Bold-4fdd" d="M 3194 4480 
L 5075 4480 
L 5075 3622 
L 3194 3622 
L 3194 4480 
z
M 2470 5158 
L 2470 2950 
L 3731 2950 
L 3731 2368 
L 2042 2368 
L 2042 1677 
L 3354 1677 
C 2963 1107 2394 589 1811 288 
C 1984 141 2227 -141 2342 -326 
C 2854 -6 3341 493 3731 1056 
L 3731 -576 
L 4499 -576 
L 4499 1082 
C 4870 512 5331 -6 5805 -339 
C 5926 -154 6176 128 6349 269 
C 5805 582 5248 1114 4877 1677 
L 6157 1677 
L 6157 2368 
L 4499 2368 
L 4499 2950 
L 5850 2950 
L 5850 5158 
L 2470 5158 
z
M 1632 5421 
C 1293 4506 710 3597 115 3021 
C 250 2835 454 2419 525 2234 
C 691 2400 851 2592 1011 2803 
L 1011 -557 
L 1741 -557 
L 1741 3923 
C 1971 4333 2176 4768 2342 5190 
L 1632 5421 
z
" transform="scale(0.015625)"/>
      <path id="NotoSansCJKjp-Bold-6301" d="M 2714 1184 
C 2982 838 3277 365 3386 58 
L 4045 435 
C 3910 749 3597 1197 3322 1523 
L 2714 1184 
z
M 3898 5408 
L 3898 4710 
L 2586 4710 
L 2586 4013 
L 3898 4013 
L 3898 3456 
L 2310 3456 
L 2310 2758 
L 4723 2758 
L 4723 2246 
L 2368 2246 
L 2368 1555 
L 4723 1555 
L 4723 250 
C 4723 160 4698 141 4595 141 
C 4506 134 4166 128 3878 147 
C 3968 -58 4070 -365 4096 -576 
C 4557 -576 4902 -563 5139 -454 
C 5382 -339 5453 -147 5453 230 
L 5453 1555 
L 6163 1555 
L 6163 2246 
L 5453 2246 
L 5453 2758 
L 6208 2758 
L 6208 3456 
L 4627 3456 
L 4627 4013 
L 5926 4013 
L 5926 4710 
L 4627 4710 
L 4627 5408 
L 3898 5408 
z
M 960 5434 
L 960 4224 
L 237 4224 
L 237 3520 
L 960 3520 
L 960 2387 
L 134 2189 
L 301 1453 
L 960 1638 
L 960 282 
C 960 198 928 173 851 173 
C 774 166 550 166 320 179 
C 416 -26 499 -346 518 -531 
C 928 -538 1210 -506 1408 -390 
C 1600 -269 1664 -77 1664 275 
L 1664 1843 
L 2266 2022 
L 2170 2714 
L 1664 2573 
L 1664 3520 
L 2214 3520 
L 2214 4224 
L 1664 4224 
L 1664 5434 
L 960 5434 
z
" transform="scale(0.015625)"/>
      <path id="NotoSansCJKjp-Bold-5b9e" d="M 3392 422 
C 4211 179 5050 -211 5542 -544 
L 6010 64 
C 5491 378 4582 755 3750 992 
L 3392 422 
z
M 1485 3488 
C 1818 3296 2227 2989 2406 2778 
L 2886 3328 
C 2682 3546 2266 3821 1933 3987 
L 1485 3488 
z
M 832 2528 
C 1171 2342 1594 2054 1786 1837 
L 2246 2413 
C 2035 2618 1606 2886 1267 3040 
L 832 2528 
z
M 493 4838 
L 493 3366 
L 1254 3366 
L 1254 4122 
L 5126 4122 
L 5126 3366 
L 5933 3366 
L 5933 4838 
L 3763 4838 
C 3667 5056 3526 5312 3398 5517 
L 2624 5280 
C 2701 5146 2778 4992 2848 4838 
L 493 4838 
z
M 435 1754 
L 435 1114 
L 2509 1114 
C 2138 659 1523 326 486 96 
C 646 -70 838 -365 915 -563 
C 2330 -218 3059 339 3450 1114 
L 6003 1114 
L 6003 1754 
L 3680 1754 
C 3840 2349 3878 3046 3904 3846 
L 3091 3846 
C 3066 3008 3046 2317 2854 1754 
L 435 1754 
z
" transform="scale(0.015625)"/>
      <path id="NotoSansCJKjp-Bold-65f6" d="M 2938 2739 
C 3245 2272 3661 1638 3846 1267 
L 4531 1664 
C 4320 2029 3885 2630 3571 3072 
L 2938 2739 
z
M 1914 2464 
L 1914 1299 
L 1139 1299 
L 1139 2464 
L 1914 2464 
z
M 1914 3136 
L 1139 3136 
L 1139 4250 
L 1914 4250 
L 1914 3136 
z
M 422 4934 
L 422 102 
L 1139 102 
L 1139 614 
L 2630 614 
L 2630 4934 
L 422 4934 
z
M 4781 5395 
L 4781 4256 
L 2867 4256 
L 2867 3494 
L 4781 3494 
L 4781 454 
C 4781 326 4730 282 4589 282 
C 4448 282 3974 282 3526 301 
C 3642 83 3763 -262 3795 -474 
C 4435 -480 4890 -461 5171 -339 
C 5459 -218 5562 -13 5562 448 
L 5562 3494 
L 6214 3494 
L 6214 4256 
L 5562 4256 
L 5562 5395 
L 4781 5395 
z
" transform="scale(0.015625)"/>
      <path id="NotoSansCJKjp-Bold-ff0c" d="M 1242 -883 
C 2035 -646 2502 -58 2502 672 
C 2502 1210 2266 1549 1811 1549 
C 1472 1549 1184 1331 1184 973 
C 1184 608 1472 397 1792 397 
L 1862 403 
C 1824 70 1530 -205 1037 -365 
L 1242 -883 
z
" transform="scale(0.015625)"/>
      <path id="NotoSansCJKjp-Bold-540e" d="M 5094 5421 
C 4237 5178 2867 4998 1555 4890 
L 870 4992 
L 870 3072 
C 870 2118 813 838 128 -64 
C 320 -147 621 -416 736 -582 
C 1517 403 1638 1920 1645 2944 
L 6214 2944 
L 6214 3674 
L 1645 3674 
L 1645 4218 
C 3040 4314 4570 4499 5722 4806 
L 5094 5421 
z
M 2022 2234 
L 2022 -570 
L 2765 -570 
L 2765 -282 
L 4915 -282 
L 4915 -550 
L 5690 -550 
L 5690 2234 
L 2022 2234 
z
M 2765 429 
L 2765 1523 
L 4915 1523 
L 4915 429 
L 2765 429 
z
" transform="scale(0.015625)"/>
      <path id="NotoSansCJKjp-Bold-6bb5" d="M 4992 1914 
C 4845 1619 4653 1350 4422 1120 
C 4205 1357 4026 1619 3891 1914 
L 4992 1914 
z
M 3296 5203 
L 3296 4288 
C 3296 3859 3232 3405 2637 3072 
C 2765 2989 3008 2758 3123 2611 
L 2963 2611 
L 2963 1914 
L 3597 1914 
L 3194 1805 
C 3366 1370 3590 992 3859 659 
C 3450 397 2982 211 2458 90 
C 2605 -77 2784 -390 2867 -589 
C 3443 -422 3962 -192 4403 122 
C 4787 -179 5248 -410 5786 -563 
C 5888 -358 6112 -38 6285 122 
C 5792 230 5363 410 5005 640 
C 5440 1107 5773 1702 5971 2451 
L 5478 2637 
L 5350 2611 
L 3245 2611 
C 3878 3027 4006 3693 4006 4262 
L 4006 4531 
L 4672 4531 
L 4672 3667 
C 4672 3258 4717 3117 4832 3002 
C 4934 2893 5120 2848 5274 2848 
C 5370 2848 5517 2848 5626 2848 
C 5734 2848 5888 2867 5978 2918 
C 6086 2970 6163 3053 6208 3181 
C 6253 3296 6285 3578 6298 3834 
C 6112 3898 5856 4026 5728 4141 
C 5728 3898 5715 3706 5709 3616 
C 5690 3533 5677 3488 5651 3475 
C 5638 3462 5600 3456 5568 3456 
C 5536 3456 5498 3456 5466 3456 
C 5440 3456 5421 3469 5402 3488 
C 5389 3514 5389 3571 5389 3680 
L 5389 5203 
L 3296 5203 
z
M 2374 5434 
C 2054 5242 1530 5043 1018 4902 
L 672 5011 
L 672 1133 
L 141 1069 
L 262 320 
L 672 378 
L 672 -557 
L 1402 -557 
L 1402 486 
L 2925 717 
L 2899 1421 
L 1402 1222 
L 1402 1901 
L 2739 1901 
L 2739 2618 
L 1402 2618 
L 1402 3142 
L 2682 3142 
L 2682 3853 
L 1402 3853 
L 1402 4352 
C 1952 4486 2541 4666 3008 4890 
L 2374 5434 
z
" transform="scale(0.015625)"/>
      <path id="NotoSansCJKjp-Bold-5ef6" d="M 5530 5427 
C 4768 5197 3546 5005 2458 4909 
C 2541 4742 2643 4454 2662 4275 
C 3098 4307 3565 4358 4026 4416 
L 4026 1555 
L 3507 1555 
L 3507 3757 
L 2790 3757 
L 2790 1555 
L 2342 1555 
L 2342 858 
L 6131 858 
L 6131 1555 
L 4787 1555 
L 4787 2765 
L 5990 2765 
L 5990 3437 
L 4787 3437 
L 4787 4531 
C 5242 4608 5670 4698 6048 4806 
L 5530 5427 
z
M 947 2246 
L 346 2035 
C 518 1504 723 1082 973 749 
C 749 390 474 115 141 -90 
C 307 -186 602 -454 717 -614 
C 1018 -410 1286 -134 1510 205 
C 2189 -301 3066 -429 4134 -429 
L 5978 -429 
C 6022 -205 6150 147 6272 320 
C 5805 301 4538 301 4160 301 
C 3245 307 2451 403 1850 851 
C 2112 1459 2285 2221 2374 3155 
L 1920 3264 
L 1792 3245 
L 1376 3245 
C 1670 3840 1965 4448 2182 4954 
L 1651 5114 
L 1530 5082 
L 211 5082 
L 211 4410 
L 1158 4410 
C 890 3846 538 3136 224 2566 
L 928 2368 
L 1037 2573 
L 1581 2573 
C 1523 2150 1427 1773 1312 1440 
C 1165 1664 1043 1933 947 2246 
z
" transform="scale(0.015625)"/>
      <path id="NotoSansCJKjp-Bold-8fdf" d="M 371 4986 
C 730 4627 1158 4128 1331 3795 
L 1965 4237 
C 1766 4570 1325 5037 960 5376 
L 371 4986 
z
M 1773 3123 
L 262 3123 
L 262 2413 
L 1005 2413 
L 1005 883 
C 736 762 429 531 141 224 
L 666 -531 
C 896 -160 1171 262 1357 262 
C 1504 262 1728 64 2029 -90 
C 2496 -346 3040 -429 3859 -429 
C 4518 -429 5568 -384 6016 -352 
C 6029 -134 6157 256 6246 474 
C 5600 371 4557 314 3891 314 
C 3174 314 2573 352 2144 602 
C 1990 685 1875 762 1773 826 
L 1773 3123 
z
M 3386 3578 
L 3386 3648 
L 3386 4435 
L 5101 4435 
L 5101 3578 
L 3386 3578 
z
M 3750 2438 
C 4320 1888 5069 1120 5402 627 
L 6061 1152 
C 5702 1626 4947 2330 4397 2848 
L 5882 2848 
L 5882 5165 
L 2573 5165 
L 2573 3661 
C 2573 2861 2515 1792 1882 1056 
C 2074 966 2438 736 2579 595 
C 3085 1190 3283 2061 3354 2848 
L 4307 2848 
L 3750 2438 
z
" transform="scale(0.015625)"/>
      <path id="NotoSansCJKjp-Bold-4e0a" d="M 2579 5357 
L 2579 518 
L 275 518 
L 275 -256 
L 6131 -256 
L 6131 518 
L 3405 518 
L 3405 2739 
L 5677 2739 
L 5677 3514 
L 3405 3514 
L 3405 5357 
L 2579 5357 
z
" transform="scale(0.015625)"/>
      <path id="NotoSansCJKjp-Bold-5347" d="M 3053 5408 
C 2374 5011 1306 4640 307 4410 
C 410 4237 531 3962 570 3776 
C 922 3853 1293 3949 1658 4051 
L 1658 2906 
L 269 2906 
L 269 2170 
L 1632 2170 
C 1562 1370 1261 576 205 13 
C 384 -122 646 -403 762 -582 
C 2016 115 2342 1139 2406 2170 
L 4051 2170 
L 4051 -570 
L 4838 -570 
L 4838 2170 
L 6144 2170 
L 6144 2906 
L 4838 2906 
L 4838 5338 
L 4051 5338 
L 4051 2906 
L 2426 2906 
L 2426 4288 
C 2848 4429 3245 4582 3597 4762 
L 3053 5408 
z
" transform="scale(0.015625)"/>
     </defs>
     <use xlink:href="#NotoSansCJKjp-Bold-53cc"/>
     <use xlink:href="#NotoSansCJKjp-Bold-8def" transform="translate(99.999985 0)"/>
     <use xlink:href="#NotoSansCJKjp-Bold-20" transform="translate(199.999969 0)"/>
     <use xlink:href="#NotoSansCJKjp-Bold-31" transform="translate(222.699966 0)"/>
     <use xlink:href="#NotoSansCJKjp-Bold-30" transform="translate(281.699951 0)"/>
     <use xlink:href="#NotoSansCJKjp-Bold-20" transform="translate(340.699936 0)"/>
     <use xlink:href="#NotoSansCJKjp-Bold-5206" transform="translate(363.399933 0)"/>
     <use xlink:href="#NotoSansCJKjp-Bold-949f" transform="translate(463.399918 0)"/>
     <use xlink:href="#NotoSansCJKjp-Bold-ff1a" transform="translate(563.399902 0)"/>
     <use xlink:href="#NotoSansCJKjp-Bold-4fdd" transform="translate(663.399887 0)"/>
     <use xlink:href="#NotoSansCJKjp-Bold-6301" transform="translate(763.399872 0)"/>
     <use xlink:href="#NotoSansCJKjp-Bold-5b9e" transform="translate(863.399857 0)"/>
     <use xlink:href="#NotoSansCJKjp-Bold-65f6" transform="translate(963.399841 0)"/>
     <use xlink:href="#NotoSansCJKjp-Bold-ff0c" transform="translate(1063.399826 0)"/>
     <use xlink:href="#NotoSansCJKjp-Bold-540e" transform="translate(1163.399811 0)"/>
     <use xlink:href="#NotoSansCJKjp-Bold-6bb5" transform="translate(1263.399796 0)"/>
     <use xlink:href="#NotoSansCJKjp-Bold-5ef6" transform="translate(1363.39978 0)"/>
     <use xlink:href="#NotoSansCJKjp-Bold-8fdf" transform="translate(1463.399765 0)"/>
     <use xlink:href="#NotoSansCJKjp-Bold-4e0a" transform="translate(1563.39975 0)"/>
     <use xlink:href="#NotoSansCJKjp-Bold-5347" transform="translate(1663.399734 0)"/>
    </g>
   </g>
   <g id="legend_1">
    <g id="line2d_23">
     <path d="M 90 67.99125 
L 102 67.99125 
L 114 67.99125 
" style="fill: none; stroke: #167854; stroke-width: 2; stroke-linecap: square"/>
     <g>
      <use xlink:href="#mfffe53f2d9" x="102" y="67.99125" style="fill: #167854; stroke: #167854"/>
     </g>
    </g>
    <g id="text_19">
     <!-- PC 中文 -->
     <g transform="translate(123.6 72.19125) scale(0.12 -0.12)">
      <defs>
       <path id="NotoSansCJKjp-Regular-50" d="M 646 0 
L 1235 0 
L 1235 1869 
L 2010 1869 
C 3040 1869 3738 2323 3738 3315 
C 3738 4339 3034 4691 1984 4691 
L 646 4691 
L 646 0 
z
M 1235 2349 
L 1235 4211 
L 1907 4211 
C 2733 4211 3149 4000 3149 3315 
C 3149 2643 2758 2349 1933 2349 
L 1235 2349 
z
" transform="scale(0.015625)"/>
       <path id="NotoSansCJKjp-Regular-43" d="M 2413 -83 
C 3021 -83 3482 160 3853 589 
L 3526 966 
C 3226 634 2886 435 2438 435 
C 1542 435 979 1178 979 2362 
C 979 3533 1574 4256 2458 4256 
C 2861 4256 3168 4077 3418 3814 
L 3738 4198 
C 3469 4499 3021 4774 2451 4774 
C 1261 4774 371 3859 371 2342 
C 371 819 1242 -83 2413 -83 
z
" transform="scale(0.015625)"/>
       <path id="NotoSansCJKjp-Regular-4e2d" d="M 2931 5376 
L 2931 4230 
L 614 4230 
L 614 1190 
L 1094 1190 
L 1094 1587 
L 2931 1587 
L 2931 -506 
L 3437 -506 
L 3437 1587 
L 5280 1587 
L 5280 1222 
L 5773 1222 
L 5773 4230 
L 3437 4230 
L 3437 5376 
L 2931 5376 
z
M 1094 2061 
L 1094 3763 
L 2931 3763 
L 2931 2061 
L 1094 2061 
z
M 5280 2061 
L 3437 2061 
L 3437 3763 
L 5280 3763 
L 5280 2061 
z
" transform="scale(0.015625)"/>
       <path id="NotoSansCJKjp-Regular-6587" d="M 2944 5376 
L 2944 4288 
L 320 4288 
L 320 3821 
L 1274 3821 
C 1638 2797 2138 1920 2803 1216 
C 2118 653 1274 237 250 -58 
C 346 -173 499 -403 557 -518 
C 1594 -186 2458 262 3162 864 
C 3878 230 4755 -237 5824 -512 
C 5907 -378 6061 -154 6176 -45 
C 5133 198 4262 640 3558 1229 
C 4230 1914 4742 2758 5120 3821 
L 6106 3821 
L 6106 4288 
L 3437 4288 
L 3437 5376 
L 2944 5376 
z
M 3187 1574 
C 2579 2195 2118 2950 1798 3821 
L 4563 3821 
C 4230 2912 3782 2170 3187 1574 
z
" transform="scale(0.015625)"/>
      </defs>
      <use xlink:href="#NotoSansCJKjp-Regular-50"/>
      <use xlink:href="#NotoSansCJKjp-Regular-43" transform="translate(63.299988 0)"/>
      <use xlink:href="#NotoSansCJKjp-Regular-20" transform="translate(127.099976 0)"/>
      <use xlink:href="#NotoSansCJKjp-Regular-4e2d" transform="translate(149.499969 0)"/>
      <use xlink:href="#NotoSansCJKjp-Regular-6587" transform="translate(249.499954 0)"/>
     </g>
    </g>
    <g id="line2d_24">
     <path d="M 90 86.795625 
L 102 86.795625 
L 114 86.795625 
" style="fill: none; stroke: #386dba; stroke-width: 2; stroke-linecap: square"/>
     <g>
      <use xlink:href="#mf03b125c4d" x="102" y="86.795625" style="fill: #386dba; stroke: #386dba"/>
     </g>
    </g>
    <g id="text_20">
     <!-- 远端 garden -->
     <g transform="translate(123.6 90.995625) scale(0.12 -0.12)">
      <defs>
       <path id="NotoSansCJKjp-Regular-8fdc" d="M 410 4717 
C 787 4454 1293 4083 1542 3853 
L 1862 4218 
C 1600 4429 1088 4787 717 5030 
L 410 4717 
z
M 2413 4966 
L 2413 4531 
L 5651 4531 
L 5651 4966 
L 2413 4966 
z
M 1613 3136 
L 275 3136 
L 275 2688 
L 1146 2688 
L 1146 646 
C 870 525 557 250 250 -90 
L 570 -506 
C 890 -83 1210 294 1421 294 
C 1568 294 1792 83 2048 -77 
C 2496 -352 3027 -429 3808 -429 
C 4499 -429 5600 -397 6035 -365 
C 6042 -224 6118 6 6176 134 
C 5523 64 4557 13 3827 13 
C 3110 13 2573 58 2150 326 
C 1894 480 1747 608 1613 672 
L 1613 3136 
z
M 1990 3552 
L 1990 3117 
L 3085 3117 
C 3021 1978 2848 1280 1843 883 
C 1952 800 2086 614 2138 506 
C 3251 979 3488 1805 3552 3117 
L 4314 3117 
L 4314 1235 
C 4314 755 4429 614 4890 614 
C 4979 614 5402 614 5498 614 
C 5894 614 6016 832 6054 1658 
C 5933 1690 5741 1760 5651 1843 
C 5632 1146 5606 1050 5446 1050 
C 5363 1050 5018 1050 4947 1050 
C 4794 1050 4774 1075 4774 1242 
L 4774 3117 
L 6035 3117 
L 6035 3552 
L 1990 3552 
z
" transform="scale(0.015625)"/>
       <path id="NotoSansCJKjp-Regular-7aef" d="M 467 3341 
C 608 2688 704 1830 710 1274 
L 1101 1338 
C 1094 1901 992 2746 838 3405 
L 467 3341 
z
M 2618 2022 
L 2618 -506 
L 3053 -506 
L 3053 1606 
L 3610 1606 
L 3610 -442 
L 3994 -442 
L 3994 1606 
L 4589 1606 
L 4589 -422 
L 4973 -422 
L 4973 1606 
L 5562 1606 
L 5562 -58 
C 5562 -109 5549 -128 5491 -128 
C 5440 -134 5280 -134 5101 -128 
C 5158 -237 5216 -403 5229 -518 
C 5523 -518 5702 -512 5837 -442 
C 5965 -378 5997 -262 5997 -64 
L 5997 2022 
L 4326 2022 
L 4518 2624 
L 6138 2624 
L 6138 3059 
L 2413 3059 
L 2413 2624 
L 3981 2624 
C 3942 2426 3904 2208 3859 2022 
L 2618 2022 
z
M 2694 5056 
L 2694 3533 
L 5914 3533 
L 5914 5056 
L 5453 5056 
L 5453 3955 
L 4486 3955 
L 4486 5363 
L 4026 5363 
L 4026 3955 
L 3136 3955 
L 3136 5056 
L 2694 5056 
z
M 1139 5293 
L 1139 4090 
L 333 4090 
L 333 3654 
L 2355 3654 
L 2355 4090 
L 1574 4090 
L 1574 5293 
L 1139 5293 
z
M 1754 3456 
C 1690 2752 1542 1728 1402 1126 
L 1568 1082 
L 211 794 
L 320 326 
C 934 467 1747 666 2515 864 
L 2464 1280 
L 1786 1126 
C 1926 1722 2086 2650 2202 3360 
L 1754 3456 
z
" transform="scale(0.015625)"/>
       <path id="NotoSansCJKjp-Regular-67" d="M 1760 -1600 
C 2835 -1600 3520 -1043 3520 -397 
C 3520 179 3110 429 2310 429 
L 1626 429 
C 1158 429 1018 589 1018 806 
C 1018 998 1114 1114 1242 1222 
C 1395 1146 1587 1101 1754 1101 
C 2470 1101 3027 1568 3027 2310 
C 3027 2611 2912 2867 2746 3027 
L 3456 3027 
L 3456 3475 
L 2246 3475 
C 2125 3526 1952 3565 1754 3565 
C 1056 3565 454 3085 454 2323 
C 454 1907 678 1568 909 1389 
L 909 1363 
C 723 1235 525 1005 525 717 
C 525 442 659 256 838 147 
L 838 115 
C 512 -83 326 -371 326 -672 
C 326 -1267 915 -1600 1760 -1600 
z
M 1754 1498 
C 1357 1498 1018 1818 1018 2323 
C 1018 2835 1350 3136 1754 3136 
C 2170 3136 2496 2835 2496 2323 
C 2496 1818 2157 1498 1754 1498 
z
M 1843 -1197 
C 1210 -1197 838 -960 838 -589 
C 838 -390 941 -179 1190 0 
C 1344 -38 1510 -51 1638 -51 
L 2240 -51 
C 2701 -51 2944 -166 2944 -493 
C 2944 -851 2515 -1197 1843 -1197 
z
" transform="scale(0.015625)"/>
       <path id="NotoSansCJKjp-Regular-61" d="M 1389 -83 
C 1818 -83 2208 141 2541 416 
L 2560 416 
L 2611 0 
L 3091 0 
L 3091 2138 
C 3091 3002 2739 3565 1888 3565 
C 1325 3565 838 3315 525 3110 
L 749 2707 
C 1024 2893 1389 3078 1792 3078 
C 2362 3078 2509 2650 2509 2202 
C 1030 2035 378 1658 378 902 
C 378 275 806 -83 1389 -83 
z
M 1555 390 
C 1210 390 941 544 941 941 
C 941 1389 1338 1677 2509 1811 
L 2509 845 
C 2170 544 1888 390 1555 390 
z
" transform="scale(0.015625)"/>
       <path id="NotoSansCJKjp-Regular-72" d="M 589 0 
L 1178 0 
L 1178 2234 
C 1408 2822 1760 3040 2048 3040 
C 2195 3040 2272 3021 2387 2982 
L 2496 3488 
C 2387 3546 2278 3565 2125 3565 
C 1741 3565 1382 3283 1139 2842 
L 1126 2842 
L 1069 3475 
L 589 3475 
L 589 0 
z
" transform="scale(0.015625)"/>
       <path id="NotoSansCJKjp-Regular-64" d="M 1773 -83 
C 2189 -83 2560 141 2829 410 
L 2848 410 
L 2899 0 
L 3379 0 
L 3379 5094 
L 2790 5094 
L 2790 3757 
L 2822 3162 
C 2515 3411 2253 3565 1843 3565 
C 1050 3565 339 2861 339 1734 
C 339 576 902 -83 1773 -83 
z
M 1901 410 
C 1293 410 941 902 941 1741 
C 941 2534 1389 3072 1946 3072 
C 2234 3072 2502 2970 2790 2707 
L 2790 883 
C 2502 563 2221 410 1901 410 
z
" transform="scale(0.015625)"/>
       <path id="NotoSansCJKjp-Regular-65" d="M 1997 -83 
C 2464 -83 2835 70 3136 269 
L 2931 659 
C 2669 486 2400 384 2061 384 
C 1402 384 947 858 909 1600 
L 3251 1600 
C 3264 1690 3277 1805 3277 1933 
C 3277 2925 2778 3565 1888 3565 
C 1094 3565 333 2867 333 1734 
C 333 589 1069 -83 1997 -83 
z
M 902 2016 
C 973 2707 1408 3098 1901 3098 
C 2445 3098 2765 2720 2765 2016 
L 902 2016 
z
" transform="scale(0.015625)"/>
       <path id="NotoSansCJKjp-Regular-6e" d="M 589 0 
L 1178 0 
L 1178 2522 
C 1523 2874 1766 3053 2125 3053 
C 2586 3053 2784 2778 2784 2125 
L 2784 0 
L 3366 0 
L 3366 2202 
C 3366 3085 3034 3565 2304 3565 
C 1830 3565 1466 3302 1139 2970 
L 1126 2970 
L 1069 3475 
L 589 3475 
L 589 0 
z
" transform="scale(0.015625)"/>
      </defs>
      <use xlink:href="#NotoSansCJKjp-Regular-8fdc"/>
      <use xlink:href="#NotoSansCJKjp-Regular-7aef" transform="translate(99.999985 0)"/>
      <use xlink:href="#NotoSansCJKjp-Regular-20" transform="translate(199.999969 0)"/>
      <use xlink:href="#NotoSansCJKjp-Regular-67" transform="translate(222.399963 0)"/>
      <use xlink:href="#NotoSansCJKjp-Regular-61" transform="translate(278.799957 0)"/>
      <use xlink:href="#NotoSansCJKjp-Regular-72" transform="translate(335.099945 0)"/>
      <use xlink:href="#NotoSansCJKjp-Regular-64" transform="translate(373.899933 0)"/>
      <use xlink:href="#NotoSansCJKjp-Regular-65" transform="translate(435.899918 0)"/>
      <use xlink:href="#NotoSansCJKjp-Regular-6e" transform="translate(491.299911 0)"/>
     </g>
    </g>
   </g>
  </g>
  <g id="text_21">
   <!-- 音频全部处理；末三分之一较首三分之一增加约 0.25 秒，未满足 ≤ 0.1 秒的严格增长目标。 -->
   <g style="fill: #596575" transform="translate(79.2 318.168) scale(0.1 -0.1)">
    <defs>
     <path id="NotoSansCJKjp-Regular-97f3" d="M 1600 4250 
C 1773 3962 1926 3565 1978 3290 
L 352 3290 
L 352 2854 
L 6054 2854 
L 6054 3290 
L 4397 3290 
C 4550 3546 4742 3917 4902 4250 
L 4461 4358 
L 5741 4358 
L 5741 4794 
L 3437 4794 
L 3437 5376 
L 2938 5376 
L 2938 4794 
L 717 4794 
L 717 4358 
L 4378 4358 
C 4275 4064 4083 3642 3936 3379 
L 4262 3290 
L 2106 3290 
L 2477 3386 
C 2419 3648 2259 4058 2054 4352 
L 1600 4250 
z
M 1766 832 
L 4698 832 
L 4698 134 
L 1766 134 
L 1766 832 
z
M 1766 1216 
L 1766 1888 
L 4698 1888 
L 4698 1216 
L 1766 1216 
z
M 1293 2298 
L 1293 -518 
L 1766 -518 
L 1766 -275 
L 4698 -275 
L 4698 -499 
L 5197 -499 
L 5197 2298 
L 1293 2298 
z
" transform="scale(0.015625)"/>
     <path id="NotoSansCJKjp-Regular-9891" d="M 4486 3206 
C 4474 966 4403 224 2854 -192 
C 2938 -275 3053 -429 3091 -531 
C 4755 -58 4877 826 4890 3206 
L 4486 3206 
z
M 4659 538 
C 5088 218 5638 -243 5907 -525 
L 6195 -218 
C 5920 58 5357 499 4928 806 
L 4659 538 
z
M 2739 2470 
C 2406 1139 1670 269 314 -160 
C 410 -256 518 -416 563 -531 
C 2016 -19 2803 922 3155 2374 
L 2739 2470 
z
M 851 2541 
C 723 2067 512 1587 237 1261 
C 346 1210 518 1101 595 1037 
C 864 1389 1114 1926 1254 2451 
L 851 2541 
z
M 3482 3898 
L 3482 877 
L 3891 877 
L 3891 3520 
L 5466 3520 
L 5466 890 
L 5901 890 
L 5901 3898 
L 4749 3898 
L 5005 4570 
L 6080 4570 
L 6080 4998 
L 3315 4998 
L 3315 4570 
L 4538 4570 
C 4474 4352 4390 4096 4301 3898 
L 3482 3898 
z
M 730 4819 
L 730 3386 
L 250 3386 
L 250 2950 
L 1587 2950 
L 1587 1011 
L 2022 1011 
L 2022 2950 
L 3213 2950 
L 3213 3386 
L 2138 3386 
L 2138 4173 
L 3066 4173 
L 3066 4582 
L 2138 4582 
L 2138 5382 
L 1702 5382 
L 1702 3386 
L 1126 3386 
L 1126 4819 
L 730 4819 
z
" transform="scale(0.015625)"/>
     <path id="NotoSansCJKjp-Regular-5168" d="M 3174 4909 
C 3750 4102 4877 3155 5862 2579 
C 5952 2720 6067 2880 6182 3002 
C 5184 3501 4064 4442 3392 5389 
L 2906 5389 
C 2413 4550 1344 3533 237 2925 
C 346 2829 480 2656 544 2547 
C 1619 3174 2656 4128 3174 4909 
z
M 486 102 
L 486 -333 
L 5946 -333 
L 5946 102 
L 3430 102 
L 3430 1158 
L 5376 1158 
L 5376 1587 
L 3430 1587 
L 3430 2586 
L 5133 2586 
L 5133 3014 
L 1299 3014 
L 1299 2586 
L 2931 2586 
L 2931 1587 
L 1011 1587 
L 1011 1158 
L 2931 1158 
L 2931 102 
L 486 102 
z
" transform="scale(0.015625)"/>
     <path id="NotoSansCJKjp-Regular-90e8" d="M 269 2893 
L 269 2458 
L 3578 2458 
L 3578 2893 
L 269 2893 
z
M 832 4019 
C 960 3686 1075 3258 1101 2970 
L 1530 3078 
C 1491 3354 1376 3782 1229 4102 
L 832 4019 
z
M 2662 4147 
C 2586 3827 2432 3354 2304 3059 
L 2694 2950 
C 2829 3232 2982 3661 3123 4038 
L 2662 4147 
z
M 3840 4998 
L 3840 -512 
L 4307 -512 
L 4307 4544 
L 5523 4544 
C 5318 4032 5043 3334 4768 2797 
C 5421 2234 5606 1747 5613 1350 
C 5613 1114 5562 928 5427 838 
C 5350 794 5254 774 5146 768 
C 5024 762 4838 762 4646 781 
C 4730 640 4774 442 4781 307 
C 4973 294 5178 294 5344 314 
C 5504 333 5645 378 5760 454 
C 5984 602 6080 902 6080 1299 
C 6074 1754 5914 2259 5267 2861 
C 5568 3443 5901 4186 6157 4794 
L 5811 5018 
L 5728 4998 
L 3840 4998 
z
M 1715 5350 
L 1715 4666 
L 429 4666 
L 429 4237 
L 3488 4237 
L 3488 4666 
L 2182 4666 
L 2182 5350 
L 1715 5350 
z
M 698 1894 
L 698 -518 
L 1146 -518 
L 1146 -141 
L 2752 -141 
L 2752 -486 
L 3219 -486 
L 3219 1894 
L 698 1894 
z
M 1146 288 
L 1146 1472 
L 2752 1472 
L 2752 288 
L 1146 288 
z
" transform="scale(0.015625)"/>
     <path id="NotoSansCJKjp-Regular-5904" d="M 2726 3917 
C 2605 3014 2381 2278 2074 1677 
C 1811 2112 1600 2669 1440 3379 
C 1498 3552 1555 3731 1613 3917 
L 2726 3917 
z
M 1408 5350 
C 1235 4096 838 2886 333 2221 
C 461 2157 634 2029 723 1952 
C 890 2176 1043 2445 1184 2752 
C 1357 2138 1568 1638 1818 1242 
C 1395 608 858 160 218 -147 
C 339 -218 531 -410 614 -518 
C 1203 -218 1709 218 2125 813 
C 2906 -109 3936 -314 5037 -314 
L 5978 -314 
C 6010 -173 6093 64 6176 186 
C 5926 179 5261 179 5062 179 
C 4077 179 3110 358 2387 1229 
C 2822 2010 3123 3008 3264 4288 
L 2950 4378 
L 2854 4358 
L 1728 4358 
C 1798 4640 1862 4934 1914 5229 
L 1408 5350 
z
M 3936 5363 
L 3936 653 
L 4448 653 
L 4448 3328 
C 4883 2822 5350 2221 5574 1824 
L 5997 2086 
C 5709 2547 5101 3270 4614 3802 
L 4448 3706 
L 4448 5363 
L 3936 5363 
z
" transform="scale(0.015625)"/>
     <path id="NotoSansCJKjp-Regular-7406" d="M 3046 3456 
L 4026 3456 
L 4026 2630 
L 3046 2630 
L 3046 3456 
z
M 4442 3456 
L 5421 3456 
L 5421 2630 
L 4442 2630 
L 4442 3456 
z
M 3046 4659 
L 4026 4659 
L 4026 3846 
L 3046 3846 
L 3046 4659 
z
M 4442 4659 
L 5421 4659 
L 5421 3846 
L 4442 3846 
L 4442 4659 
z
M 2035 141 
L 2035 -301 
L 6189 -301 
L 6189 141 
L 4480 141 
L 4480 1024 
L 5971 1024 
L 5971 1459 
L 4480 1459 
L 4480 2214 
L 5882 2214 
L 5882 5082 
L 2605 5082 
L 2605 2214 
L 3987 2214 
L 3987 1459 
L 2528 1459 
L 2528 1024 
L 3987 1024 
L 3987 141 
L 2035 141 
z
M 224 640 
L 346 154 
C 909 339 1645 589 2336 819 
L 2253 1286 
L 1549 1050 
L 1549 2643 
L 2195 2643 
L 2195 3091 
L 1549 3091 
L 1549 4493 
L 2291 4493 
L 2291 4941 
L 294 4941 
L 294 4493 
L 1088 4493 
L 1088 3091 
L 358 3091 
L 358 2643 
L 1088 2643 
L 1088 902 
C 762 800 467 710 224 640 
z
" transform="scale(0.015625)"/>
     <path id="NotoSansCJKjp-Regular-ff1b" d="M 3200 3482 
C 3456 3482 3686 3667 3686 3962 
C 3686 4256 3456 4442 3200 4442 
C 2944 4442 2714 4256 2714 3962 
C 2714 3667 2944 3482 3200 3482 
z
M 2682 -659 
C 3366 -397 3789 141 3789 883 
C 3789 1363 3590 1664 3238 1664 
C 2982 1664 2752 1504 2752 1203 
C 2752 896 2970 742 3232 742 
L 3347 755 
C 3328 256 3053 -83 2534 -320 
L 2682 -659 
z
" transform="scale(0.015625)"/>
     <path id="NotoSansCJKjp-Regular-672b" d="M 2938 5376 
L 2938 4294 
L 397 4294 
L 397 3821 
L 2938 3821 
L 2938 2701 
L 730 2701 
L 730 2227 
L 2656 2227 
C 2080 1421 1114 653 230 269 
C 346 166 499 -26 582 -147 
C 1421 282 2323 1050 2938 1901 
L 2938 -506 
L 3443 -506 
L 3443 1933 
C 4064 1088 4979 294 5824 -134 
C 5914 0 6067 192 6189 288 
C 5306 666 4339 1434 3744 2227 
L 5696 2227 
L 5696 2701 
L 3443 2701 
L 3443 3821 
L 6029 3821 
L 6029 4294 
L 3443 4294 
L 3443 5376 
L 2938 5376 
z
" transform="scale(0.015625)"/>
     <path id="NotoSansCJKjp-Regular-4e09" d="M 787 4755 
L 787 4269 
L 5626 4269 
L 5626 4755 
L 787 4755 
z
M 1197 2662 
L 1197 2182 
L 5126 2182 
L 5126 2662 
L 1197 2662 
z
M 416 442 
L 416 -45 
L 5978 -45 
L 5978 442 
L 416 442 
z
" transform="scale(0.015625)"/>
     <path id="NotoSansCJKjp-Regular-4e4b" d="M 666 -506 
C 941 -96 1203 378 1427 819 
C 2054 -179 3066 -403 4486 -403 
L 5984 -403 
C 6003 -262 6086 -38 6163 77 
C 5862 70 4730 70 4512 70 
C 3686 70 2970 147 2438 454 
C 3693 1306 5043 2694 5792 3904 
L 5434 4134 
L 5331 4109 
L 3430 4109 
L 3430 5370 
L 2944 5370 
L 2944 4109 
L 627 4109 
L 627 3635 
L 4998 3635 
C 4320 2650 3136 1466 2048 755 
C 1894 909 1766 1088 1664 1312 
L 1862 1760 
L 1395 1946 
C 1139 1261 659 339 198 -230 
L 666 -506 
z
" transform="scale(0.015625)"/>
     <path id="NotoSansCJKjp-Regular-4e00" d="M 282 2758 
L 282 2234 
L 6144 2234 
L 6144 2758 
L 282 2758 
z
" transform="scale(0.015625)"/>
     <path id="NotoSansCJKjp-Regular-8f83" d="M 4883 3661 
C 5222 3213 5619 2611 5798 2240 
L 6176 2483 
C 5990 2848 5581 3430 5235 3859 
L 4883 3661 
z
M 3667 3853 
C 3456 3386 3110 2886 2784 2547 
C 2880 2458 3034 2272 3098 2189 
C 3443 2573 3827 3174 4096 3712 
L 3667 3853 
z
M 518 2125 
C 570 2176 768 2214 979 2214 
L 1581 2214 
L 1581 1267 
L 256 1069 
L 352 602 
L 1581 813 
L 1581 -480 
L 2010 -480 
L 2010 890 
L 2675 1011 
L 2656 1440 
L 2010 1331 
L 2010 2214 
L 2560 2214 
L 2560 2650 
L 2010 2650 
L 2010 3642 
L 1581 3642 
L 1581 2650 
L 947 2650 
C 1126 3091 1306 3616 1459 4160 
L 2547 4160 
L 2547 4621 
L 1581 4621 
C 1632 4838 1683 5062 1722 5280 
L 1254 5376 
C 1222 5126 1171 4870 1114 4621 
L 301 4621 
L 301 4160 
L 1005 4160 
C 870 3648 736 3226 672 3066 
C 563 2784 480 2579 371 2547 
C 422 2432 493 2214 518 2125 
z
M 3936 5229 
C 4090 4992 4269 4672 4358 4461 
L 2854 4461 
L 2854 4019 
L 6029 4019 
L 6029 4461 
L 4435 4461 
L 4794 4640 
C 4704 4845 4518 5171 4346 5408 
L 3936 5229 
z
M 5011 2669 
C 4890 2182 4698 1741 4448 1344 
C 4173 1741 3962 2189 3808 2656 
L 3386 2541 
C 3578 1958 3840 1427 4160 960 
C 3770 493 3270 109 2662 -179 
C 2765 -262 2906 -429 2970 -518 
C 3558 -230 4045 141 4442 595 
C 4832 134 5293 -237 5830 -480 
C 5907 -358 6048 -179 6157 -90 
C 5606 134 5126 506 4730 973 
C 5050 1434 5293 1958 5453 2560 
L 5011 2669 
z
" transform="scale(0.015625)"/>
     <path id="NotoSansCJKjp-Regular-9996" d="M 1555 1997 
L 4832 1997 
L 4832 1344 
L 1555 1344 
L 1555 1997 
z
M 1555 2387 
L 1555 3021 
L 4832 3021 
L 4832 2387 
L 1555 2387 
z
M 1555 960 
L 4832 960 
L 4832 282 
L 1555 282 
L 1555 960 
z
M 1459 5216 
C 1658 5005 1882 4710 2003 4493 
L 346 4493 
L 346 4045 
L 2918 4045 
C 2880 3853 2829 3635 2771 3450 
L 1075 3450 
L 1075 -512 
L 1555 -512 
L 1555 -147 
L 4832 -147 
L 4832 -512 
L 5331 -512 
L 5331 3450 
L 3277 3450 
L 3494 4045 
L 6074 4045 
L 6074 4493 
L 4454 4493 
C 4640 4717 4845 4986 5024 5248 
L 4493 5389 
C 4358 5120 4115 4749 3910 4493 
L 2208 4493 
L 2490 4640 
C 2368 4851 2118 5171 1882 5402 
L 1459 5216 
z
" transform="scale(0.015625)"/>
     <path id="NotoSansCJKjp-Regular-589e" d="M 2995 3405 
C 3110 3174 3219 2861 3264 2662 
L 3571 2765 
C 3533 2957 3411 3264 3290 3488 
L 2995 3405 
z
M 4768 3494 
C 4710 3290 4582 2970 4486 2758 
L 4742 2662 
C 4858 2854 4986 3123 5107 3386 
L 4768 3494 
z
M 3002 5030 
C 2765 4576 2374 4128 1978 3808 
L 1427 3808 
L 1427 5286 
L 960 5286 
L 960 3808 
L 282 3808 
L 282 3354 
L 960 3354 
L 960 1293 
L 179 986 
L 352 512 
C 896 742 1581 1050 2240 1338 
L 2125 1773 
L 1427 1485 
L 1427 3354 
L 1997 3354 
L 1997 3616 
C 2074 3539 2157 3450 2202 3392 
L 2368 3533 
L 2368 2182 
L 5805 2182 
L 5805 3571 
L 5952 3462 
C 6029 3578 6170 3744 6266 3834 
C 5786 4122 5235 4672 4934 5210 
L 3539 5210 
L 3539 4787 
L 4685 4787 
C 4864 4512 5088 4243 5331 4000 
L 2816 4000 
C 3053 4282 3270 4589 3430 4902 
L 3002 5030 
z
M 2675 1824 
L 2675 -512 
L 3130 -512 
L 3130 -269 
L 5030 -269 
L 5030 -493 
L 5504 -493 
L 5504 1824 
L 2675 1824 
z
M 3130 102 
L 3130 614 
L 5030 614 
L 5030 102 
L 3130 102 
z
M 3130 954 
L 3130 1453 
L 5030 1453 
L 5030 954 
L 3130 954 
z
M 2752 3635 
L 3872 3635 
L 3872 2554 
L 2752 2554 
L 2752 3635 
z
M 4237 3635 
L 5395 3635 
L 5395 2554 
L 4237 2554 
L 4237 3635 
z
" transform="scale(0.015625)"/>
     <path id="NotoSansCJKjp-Regular-52a0" d="M 3661 4582 
L 3661 -416 
L 4122 -416 
L 4122 58 
L 5363 58 
L 5363 -365 
L 5843 -365 
L 5843 4582 
L 3661 4582 
z
M 4122 518 
L 4122 4115 
L 5363 4115 
L 5363 518 
L 4122 518 
z
M 1248 5293 
L 1242 4160 
L 339 4160 
L 339 3693 
L 1229 3693 
C 1184 2080 986 659 179 -186 
C 301 -262 474 -410 550 -518 
C 1414 422 1638 1958 1696 3693 
L 2669 3693 
C 2618 1229 2560 352 2426 166 
C 2368 83 2304 58 2208 64 
C 2093 64 1818 64 1517 90 
C 1600 -45 1645 -250 1658 -390 
C 1946 -410 2240 -416 2419 -390 
C 2605 -365 2726 -307 2842 -141 
C 3040 134 3085 1069 3136 3917 
C 3136 3987 3136 4160 3136 4160 
L 1709 4160 
L 1722 5293 
L 1248 5293 
z
" transform="scale(0.015625)"/>
     <path id="NotoSansCJKjp-Regular-7ea6" d="M 256 339 
L 333 -128 
C 986 6 1875 186 2733 358 
L 2701 781 
C 1798 608 864 435 256 339 
z
M 3187 2656 
C 3654 2240 4192 1651 4422 1254 
L 4781 1555 
C 4538 1958 3994 2522 3514 2925 
L 3187 2656 
z
M 390 2714 
C 486 2765 646 2797 1478 2893 
C 1184 2483 909 2157 787 2029 
C 582 1798 422 1638 282 1613 
C 339 1491 410 1274 435 1178 
C 582 1254 813 1306 2643 1613 
C 2624 1709 2618 1888 2624 2022 
L 1114 1798 
C 1638 2362 2163 3066 2611 3776 
L 2208 4019 
C 2080 3782 1926 3539 1773 3315 
L 896 3232 
C 1306 3776 1709 4474 2029 5165 
L 1574 5350 
C 1274 4582 774 3770 621 3558 
C 467 3341 352 3200 230 3168 
C 288 3046 365 2816 390 2714 
z
M 3622 5376 
C 3418 4506 3059 3635 2618 3078 
C 2726 3014 2931 2880 3021 2810 
C 3213 3072 3392 3392 3552 3750 
L 5434 3750 
C 5363 1235 5274 275 5082 64 
C 5011 -19 4941 -45 4819 -38 
C 4666 -38 4301 -38 3898 0 
C 3987 -134 4045 -326 4051 -461 
C 4410 -486 4781 -493 4992 -467 
C 5216 -448 5357 -390 5498 -211 
C 5741 96 5818 1062 5901 3955 
C 5901 4019 5907 4198 5907 4198 
L 3738 4198 
C 3866 4544 3987 4909 4083 5280 
L 3622 5376 
z
" transform="scale(0.015625)"/>
     <path id="NotoSansCJKjp-Regular-ff0c" d="M 1005 -685 
C 1677 -448 2112 77 2112 768 
C 2112 1216 1920 1504 1568 1504 
C 1306 1504 1082 1344 1082 1043 
C 1082 742 1299 589 1562 589 
L 1670 602 
C 1638 160 1357 -141 864 -346 
L 1005 -685 
z
" transform="scale(0.015625)"/>
     <path id="NotoSansCJKjp-Regular-672a" d="M 2938 5370 
L 2938 4326 
L 851 4326 
L 851 3853 
L 2938 3853 
L 2938 2746 
L 397 2746 
L 397 2272 
L 2662 2272 
C 2086 1446 1114 646 218 250 
C 326 154 486 -32 570 -154 
C 1414 282 2317 1043 2938 1894 
L 2938 -512 
L 3443 -512 
L 3443 1920 
C 4070 1062 4979 269 5830 -160 
C 5914 -32 6074 160 6182 256 
C 5286 646 4307 1446 3718 2272 
L 6029 2272 
L 6029 2746 
L 3443 2746 
L 3443 3853 
L 5594 3853 
L 5594 4326 
L 3443 4326 
L 3443 5370 
L 2938 5370 
z
" transform="scale(0.015625)"/>
     <path id="NotoSansCJKjp-Regular-6ee1" d="M 582 4909 
C 915 4704 1344 4403 1542 4192 
L 1856 4550 
C 1638 4755 1216 5043 877 5235 
L 582 4909 
z
M 269 3142 
C 614 2963 1050 2688 1267 2496 
L 1555 2867 
C 1331 3053 896 3315 550 3475 
L 269 3142 
z
M 403 -64 
L 826 -371 
C 1139 211 1510 979 1792 1632 
L 1414 1933 
C 1107 1229 691 416 403 -64 
z
M 1875 3757 
L 1875 3347 
L 3258 3347 
L 3245 2771 
L 2042 2771 
L 2042 -486 
L 2509 -486 
L 2509 2342 
L 3213 2342 
C 3142 1606 2963 1037 2534 634 
C 2630 576 2797 435 2861 358 
C 3130 640 3309 973 3424 1363 
C 3558 1197 3680 1018 3744 890 
L 4019 1165 
C 3923 1338 3725 1587 3533 1786 
C 3565 1965 3590 2144 3610 2342 
L 4352 2342 
C 4282 1536 4102 909 3667 461 
C 3763 410 3930 275 4000 218 
C 4275 531 4454 909 4576 1350 
C 4755 1075 4922 781 5011 570 
L 5331 826 
C 5216 1107 4934 1536 4678 1862 
C 4704 2016 4723 2176 4736 2342 
L 5453 2342 
L 5453 -26 
C 5453 -102 5434 -128 5344 -134 
C 5261 -141 4986 -141 4672 -128 
C 4717 -224 4774 -365 4800 -467 
C 5248 -467 5523 -461 5683 -410 
C 5850 -346 5901 -243 5901 -26 
L 5901 2771 
L 4768 2771 
L 4787 3347 
L 6086 3347 
L 6086 3757 
L 1875 3757 
z
M 3635 2771 
L 3654 3347 
L 4397 3347 
L 4384 2771 
L 3635 2771 
z
M 4493 5376 
L 4493 4858 
L 3430 4858 
L 3430 5376 
L 2982 5376 
L 2982 4858 
L 1907 4858 
L 1907 4448 
L 2982 4448 
L 2982 3955 
L 3430 3955 
L 3430 4448 
L 4493 4448 
L 4493 3955 
L 4941 3955 
L 4941 4448 
L 6048 4448 
L 6048 4858 
L 4941 4858 
L 4941 5376 
L 4493 5376 
z
" transform="scale(0.015625)"/>
     <path id="NotoSansCJKjp-Regular-8db3" d="M 1555 4602 
L 4966 4602 
L 4966 3341 
L 1555 3341 
L 1555 4602 
z
M 1446 2406 
C 1350 1478 1043 390 282 -186 
C 384 -262 544 -416 621 -512 
C 1082 -160 1395 358 1606 928 
C 2221 -179 3213 -429 4576 -429 
L 5990 -429 
C 6016 -294 6093 -70 6170 45 
C 5888 38 4800 32 4595 38 
C 4192 38 3821 64 3482 128 
L 3482 1434 
L 5645 1434 
L 5645 1888 
L 3482 1888 
L 3482 2886 
L 5466 2886 
L 5466 5062 
L 1082 5062 
L 1082 2886 
L 2989 2886 
L 2989 275 
C 2458 480 2048 864 1792 1536 
C 1862 1805 1914 2080 1952 2342 
L 1446 2406 
z
" transform="scale(0.015625)"/>
     <path id="NotoSansCJKjp-Regular-2264" d="M 5581 531 
L 819 531 
L 819 115 
L 5581 115 
L 5581 531 
z
M 1824 3040 
L 1824 3066 
L 5594 4589 
L 5427 4998 
L 653 3066 
L 653 3040 
L 5427 1114 
L 5594 1517 
L 1824 3040 
z
" transform="scale(0.015625)"/>
     <path id="NotoSansCJKjp-Regular-7684" d="M 3533 2707 
C 3885 2240 4320 1600 4512 1210 
L 4922 1466 
C 4710 1843 4269 2464 3904 2918 
L 3533 2707 
z
M 1536 5389 
C 1485 5082 1376 4659 1274 4346 
L 557 4346 
L 557 -346 
L 998 -346 
L 998 160 
L 2784 160 
L 2784 4346 
L 1715 4346 
C 1824 4621 1946 4979 2054 5299 
L 1536 5389 
z
M 998 3917 
L 2342 3917 
L 2342 2566 
L 998 2566 
L 998 3917 
z
M 998 595 
L 998 2144 
L 2342 2144 
L 2342 595 
L 998 595 
z
M 3827 5402 
C 3622 4518 3277 3635 2835 3066 
C 2950 3002 3149 2867 3238 2790 
C 3456 3098 3661 3488 3840 3923 
L 5478 3923 
C 5402 1357 5299 371 5094 154 
C 5018 64 4947 45 4819 45 
C 4672 45 4288 51 3866 83 
C 3955 -38 4013 -243 4026 -378 
C 4384 -397 4762 -410 4979 -390 
C 5210 -365 5350 -314 5498 -122 
C 5754 192 5843 1184 5939 4122 
C 5946 4186 5946 4365 5946 4365 
L 4013 4365 
C 4115 4666 4211 4986 4288 5299 
L 3827 5402 
z
" transform="scale(0.015625)"/>
     <path id="NotoSansCJKjp-Regular-4e25" d="M 941 4250 
C 1184 3885 1408 3386 1485 3059 
L 1914 3213 
C 1837 3546 1600 4032 1344 4390 
L 941 4250 
z
M 5005 4410 
C 4864 4038 4595 3507 4384 3187 
L 4768 3046 
C 4992 3354 5274 3840 5498 4256 
L 5005 4410 
z
M 723 2918 
L 723 1869 
C 723 1254 666 429 179 -179 
C 282 -243 474 -422 557 -518 
C 1088 160 1197 1158 1197 1862 
L 1197 2490 
L 5990 2490 
L 5990 2918 
L 4102 2918 
L 4102 4595 
L 5792 4595 
L 5792 5018 
L 666 5018 
L 666 4595 
L 2285 4595 
L 2285 2918 
L 723 2918 
z
M 2758 4595 
L 3622 4595 
L 3622 2918 
L 2758 2918 
L 2758 4595 
z
" transform="scale(0.015625)"/>
     <path id="NotoSansCJKjp-Regular-683c" d="M 3680 4269 
L 5082 4269 
C 4890 3866 4627 3494 4320 3174 
C 4013 3488 3776 3821 3603 4147 
L 3680 4269 
z
M 1293 5376 
L 1293 4006 
L 333 4006 
L 333 3552 
L 1235 3552 
C 1037 2669 608 1664 179 1120 
C 262 1011 384 826 429 698 
C 749 1120 1056 1818 1293 2541 
L 1293 -506 
L 1747 -506 
L 1747 2720 
C 1946 2438 2170 2093 2272 1914 
L 2560 2278 
C 2445 2445 1920 3078 1747 3270 
L 1747 3552 
L 2477 3552 
L 2323 3424 
C 2432 3347 2618 3181 2701 3098 
C 2918 3290 3136 3520 3334 3776 
C 3507 3475 3731 3168 4006 2880 
C 3462 2413 2822 2067 2182 1862 
C 2278 1766 2400 1587 2458 1472 
C 2624 1536 2790 1600 2957 1677 
L 2957 -518 
L 3405 -518 
L 3405 -237 
L 5190 -237 
L 5190 -493 
L 5658 -493 
L 5658 1728 
L 5952 1613 
C 6022 1734 6157 1920 6253 2016 
C 5619 2208 5082 2509 4646 2874 
C 5094 3341 5459 3904 5690 4563 
L 5389 4704 
L 5299 4685 
L 3917 4685 
C 4019 4870 4109 5062 4186 5261 
L 3725 5382 
C 3475 4730 3059 4102 2579 3648 
L 2579 4006 
L 1747 4006 
L 1747 5376 
L 1293 5376 
z
M 3405 186 
L 3405 1421 
L 5190 1421 
L 5190 186 
L 3405 186 
z
M 3270 1837 
C 3648 2035 4000 2278 4326 2566 
C 4640 2291 5005 2042 5421 1837 
L 3270 1837 
z
" transform="scale(0.015625)"/>
     <path id="NotoSansCJKjp-Regular-957f" d="M 4922 5235 
C 4365 4570 3430 3962 2528 3590 
C 2650 3501 2842 3309 2931 3200 
C 3795 3629 4768 4294 5402 5030 
L 4922 5235 
z
M 358 2874 
L 358 2394 
L 1587 2394 
L 1587 352 
C 1587 96 1440 0 1325 -45 
C 1402 -147 1491 -358 1523 -474 
C 1677 -378 1920 -301 3674 173 
C 3648 275 3629 480 3629 621 
L 2086 243 
L 2086 2394 
L 3091 2394 
C 3610 1069 4518 122 5850 -326 
C 5920 -179 6074 19 6189 128 
C 4960 480 4064 1293 3590 2394 
L 6042 2394 
L 6042 2874 
L 2086 2874 
L 2086 5344 
L 1587 5344 
L 1587 2874 
L 358 2874 
z
" transform="scale(0.015625)"/>
     <path id="NotoSansCJKjp-Regular-76ee" d="M 1491 3008 
L 4858 3008 
L 4858 1952 
L 1491 1952 
L 1491 3008 
z
M 1491 3469 
L 1491 4506 
L 4858 4506 
L 4858 3469 
L 1491 3469 
z
M 1491 1491 
L 4858 1491 
L 4858 429 
L 1491 429 
L 1491 1491 
z
M 1011 4979 
L 1011 -474 
L 1491 -474 
L 1491 -38 
L 4858 -38 
L 4858 -474 
L 5357 -474 
L 5357 4979 
L 1011 4979 
z
" transform="scale(0.015625)"/>
     <path id="NotoSansCJKjp-Regular-6807" d="M 2982 4890 
L 2982 4435 
L 5773 4435 
L 5773 4890 
L 2982 4890 
z
M 4986 2080 
C 5286 1440 5587 608 5683 102 
L 6125 262 
C 6016 768 5709 1581 5395 2208 
L 4986 2080 
z
M 3142 2189 
C 2976 1510 2688 826 2330 365 
C 2438 314 2630 179 2720 115 
C 3066 602 3386 1350 3584 2093 
L 3142 2189 
z
M 2701 3360 
L 2701 2906 
L 4070 2906 
L 4070 115 
C 4070 32 4045 6 3949 0 
C 3866 0 3565 -6 3232 6 
C 3296 -141 3366 -346 3386 -486 
C 3834 -486 4128 -474 4314 -397 
C 4499 -314 4557 -166 4557 109 
L 4557 2906 
L 6118 2906 
L 6118 3360 
L 2701 3360 
z
M 1293 5376 
L 1293 4019 
L 314 4019 
L 314 3571 
L 1190 3571 
C 979 2778 563 1856 154 1376 
C 243 1254 371 1056 422 928 
C 742 1338 1056 2010 1293 2701 
L 1293 -506 
L 1773 -506 
L 1773 2842 
C 1990 2528 2246 2131 2355 1926 
L 2637 2304 
C 2509 2483 1958 3187 1773 3398 
L 1773 3571 
L 2611 3571 
L 2611 4019 
L 1773 4019 
L 1773 5376 
L 1293 5376 
z
" transform="scale(0.015625)"/>
     <path id="NotoSansCJKjp-Regular-3002" d="M 1242 1562 
C 710 1562 269 1126 269 589 
C 269 45 710 -390 1242 -390 
C 1786 -390 2221 45 2221 589 
C 2221 1126 1786 1562 1242 1562 
z
M 1242 -64 
C 890 -64 595 224 595 589 
C 595 941 890 1235 1242 1235 
C 1606 1235 1894 941 1894 589 
C 1894 224 1606 -64 1242 -64 
z
" transform="scale(0.015625)"/>
    </defs>
    <use xlink:href="#NotoSansCJKjp-Regular-97f3"/>
    <use xlink:href="#NotoSansCJKjp-Regular-9891" transform="translate(99.999985 0)"/>
    <use xlink:href="#NotoSansCJKjp-Regular-5168" transform="translate(199.999969 0)"/>
    <use xlink:href="#NotoSansCJKjp-Regular-90e8" transform="translate(299.999954 0)"/>
    <use xlink:href="#NotoSansCJKjp-Regular-5904" transform="translate(399.999939 0)"/>
    <use xlink:href="#NotoSansCJKjp-Regular-7406" transform="translate(499.999924 0)"/>
    <use xlink:href="#NotoSansCJKjp-Regular-ff1b" transform="translate(599.999908 0)"/>
    <use xlink:href="#NotoSansCJKjp-Regular-672b" transform="translate(699.999893 0)"/>
    <use xlink:href="#NotoSansCJKjp-Regular-4e09" transform="translate(799.999878 0)"/>
    <use xlink:href="#NotoSansCJKjp-Regular-5206" transform="translate(899.999863 0)"/>
    <use xlink:href="#NotoSansCJKjp-Regular-4e4b" transform="translate(999.999847 0)"/>
    <use xlink:href="#NotoSansCJKjp-Regular-4e00" transform="translate(1099.999832 0)"/>
    <use xlink:href="#NotoSansCJKjp-Regular-8f83" transform="translate(1199.999817 0)"/>
    <use xlink:href="#NotoSansCJKjp-Regular-9996" transform="translate(1299.999802 0)"/>
    <use xlink:href="#NotoSansCJKjp-Regular-4e09" transform="translate(1399.999786 0)"/>
    <use xlink:href="#NotoSansCJKjp-Regular-5206" transform="translate(1499.999771 0)"/>
    <use xlink:href="#NotoSansCJKjp-Regular-4e4b" transform="translate(1599.999756 0)"/>
    <use xlink:href="#NotoSansCJKjp-Regular-4e00" transform="translate(1699.999741 0)"/>
    <use xlink:href="#NotoSansCJKjp-Regular-589e" transform="translate(1799.999725 0)"/>
    <use xlink:href="#NotoSansCJKjp-Regular-52a0" transform="translate(1899.99971 0)"/>
    <use xlink:href="#NotoSansCJKjp-Regular-7ea6" transform="translate(1999.999695 0)"/>
    <use xlink:href="#NotoSansCJKjp-Regular-20" transform="translate(2099.99968 0)"/>
    <use xlink:href="#NotoSansCJKjp-Regular-30" transform="translate(2122.399673 0)"/>
    <use xlink:href="#NotoSansCJKjp-Regular-2e" transform="translate(2177.899658 0)"/>
    <use xlink:href="#NotoSansCJKjp-Regular-32" transform="translate(2205.699646 0)"/>
    <use xlink:href="#NotoSansCJKjp-Regular-35" transform="translate(2261.199631 0)"/>
    <use xlink:href="#NotoSansCJKjp-Regular-20" transform="translate(2316.699615 0)"/>
    <use xlink:href="#NotoSansCJKjp-Regular-79d2" transform="translate(2339.099609 0)"/>
    <use xlink:href="#NotoSansCJKjp-Regular-ff0c" transform="translate(2439.099594 0)"/>
    <use xlink:href="#NotoSansCJKjp-Regular-672a" transform="translate(2539.099579 0)"/>
    <use xlink:href="#NotoSansCJKjp-Regular-6ee1" transform="translate(2639.099564 0)"/>
    <use xlink:href="#NotoSansCJKjp-Regular-8db3" transform="translate(2739.099548 0)"/>
    <use xlink:href="#NotoSansCJKjp-Regular-20" transform="translate(2839.099533 0)"/>
    <use xlink:href="#NotoSansCJKjp-Regular-2264" transform="translate(2861.499527 0)"/>
    <use xlink:href="#NotoSansCJKjp-Regular-20" transform="translate(2961.499512 0)"/>
    <use xlink:href="#NotoSansCJKjp-Regular-30" transform="translate(2983.899506 0)"/>
    <use xlink:href="#NotoSansCJKjp-Regular-2e" transform="translate(3039.39949 0)"/>
    <use xlink:href="#NotoSansCJKjp-Regular-31" transform="translate(3067.199478 0)"/>
    <use xlink:href="#NotoSansCJKjp-Regular-20" transform="translate(3122.699463 0)"/>
    <use xlink:href="#NotoSansCJKjp-Regular-79d2" transform="translate(3145.099457 0)"/>
    <use xlink:href="#NotoSansCJKjp-Regular-7684" transform="translate(3245.099442 0)"/>
    <use xlink:href="#NotoSansCJKjp-Regular-4e25" transform="translate(3345.099426 0)"/>
    <use xlink:href="#NotoSansCJKjp-Regular-683c" transform="translate(3445.099411 0)"/>
    <use xlink:href="#NotoSansCJKjp-Regular-589e" transform="translate(3545.099396 0)"/>
    <use xlink:href="#NotoSansCJKjp-Regular-957f" transform="translate(3645.09938 0)"/>
    <use xlink:href="#NotoSansCJKjp-Regular-76ee" transform="translate(3745.099365 0)"/>
    <use xlink:href="#NotoSansCJKjp-Regular-6807" transform="translate(3845.09935 0)"/>
    <use xlink:href="#NotoSansCJKjp-Regular-3002" transform="translate(3945.099335 0)"/>
   </g>
  </g>
 </g>
 <defs>
  <clipPath id="p03351dca3c">
   <rect x="79.2" y="51.84" width="696.96" height="213.84"/>
  </clipPath>
 </defs>
</svg>
